<svg width="71" height="71" viewBox="0 0 71 71" fill="none" xmlns="http://www.w3.org/2000/svg">
    <path d="M33.6603 50.5622C36.2464 46.6032 36.9028 41.679 35.4437 37.1763C33.9847 32.6736 30.5697 29.0778 26.1589 27.3994L14.7811 23.0717C10.886 21.8016 6.69649 23.9956 5.42688 27.915C4.14977 31.8589 6.30079 36.0963 10.2297 37.3758L20.0734 40.5839C20.6435 40.7702 21.0917 41.2199 21.2773 41.7919C21.463 42.364 21.3636 42.9924 21.011 43.4798L14.9274 51.8812C12.4988 55.2361 13.2415 59.9289 16.5833 62.3674C17.9111 63.3365 19.4507 63.8012 20.9754 63.8012C23.2896 63.8012 25.57 62.7287 27.0347 60.706L33.6603 50.5603V50.5622Z" fill="#FBFFCA"/>
    <path d="M63.8611 27.8921C62.5839 23.9482 58.3625 21.79 54.4318 23.0714L44.5881 26.2814C44.018 26.4677 43.3916 26.368 42.9059 26.0142C42.4202 25.6605 42.1333 25.0941 42.1333 24.492V14.1092C42.1333 9.96213 38.7839 6.60156 34.6506 6.60156C30.5173 6.60156 27.168 9.96213 27.168 14.1092V20.979C27.168 22.5238 28.1075 23.9106 29.5384 24.4788L45.5239 30.8255C46.5628 31.2376 47.3655 32.0956 47.7105 33.1625C48.0556 34.2294 47.9093 35.396 47.3092 36.3424L38.0956 50.9024C37.2705 52.2064 37.323 53.8829 38.2269 55.1323L42.2495 60.6868C43.7142 62.7095 45.9965 63.7821 48.3107 63.7821C49.8353 63.7821 51.375 63.3173 52.7027 62.3483C56.0446 59.9116 56.7854 55.2169 54.3568 51.862L48.2732 43.4606C47.9206 42.9733 47.8212 42.3467 48.0068 41.7728C48.1925 41.2008 48.6407 40.7511 49.2108 40.5648L59.0545 37.3566C62.9853 36.0752 65.1382 31.836 63.8611 27.8921Z" fill="#FBFFCA"/>
</svg>