<svg width="724" height="734" viewBox="0 0 724 734" fill="none" xmlns="http://www.w3.org/2000/svg">
    <path d="M226.411 40.3265C140.502 76.1497 68.7106 145.503 32.2385 239.076C23.2141 262.229 16.7366 286.188 12.7912 310.495" stroke="#FBFFCA" stroke-width="1.19989"/>
    <path d="M209.43 33.625L226.58 40.4295L223.177 49.0045L219.775 57.5794" stroke="#FBFFCA" stroke-width="1.2" stroke-linecap="round" stroke-linejoin="round"/>
    <path d="M499.096 40.3265C585.006 76.1497 656.797 145.503 693.269 239.076C702.294 262.229 708.771 286.188 712.717 310.495" stroke="#FBFFCA" stroke-width="1.19989"/>
    <path d="M697.18 300.578L712.515 310.837L717.645 303.169L722.774 295.502" stroke="#FBFFCA" stroke-width="1.2" stroke-linecap="round" stroke-linejoin="round"/>
    <path d="M499.096 693.822C585.006 657.999 656.797 588.646 693.269 495.073C702.294 471.919 708.771 447.96 712.717 423.653" stroke="#FBFFCA" stroke-width="1.19989"/>
    <path d="M516.82 698.555L498.989 693.815L501.359 684.9L503.728 675.984" stroke="#FBFFCA" stroke-width="1.2" stroke-linecap="round" stroke-linejoin="round"/>
    <path d="M224.904 693.822C138.994 657.999 67.2028 588.646 30.7307 495.073C21.7062 471.919 15.2288 447.96 11.2834 423.653" stroke="#FBFFCA" stroke-width="1.19989"/>
    <path d="M1 438.461L11.0713 423.002L18.8009 428.037L26.5306 433.073" stroke="#FBFFCA" stroke-width="1.2" stroke-linecap="round" stroke-linejoin="round"/>
    <path d="M565 371H607" stroke="#FBFFCA" stroke-opacity="0.2" stroke-width="1.2"/>
    <path d="M119 371H161" stroke="#FBFFCA" stroke-opacity="0.2" stroke-width="1.2"/>
    <path d="M363 657V615" stroke="#FBFFCA" stroke-opacity="0.2" stroke-width="1.2"/>
    <path d="M363 121V79" stroke="#FBFFCA" stroke-opacity="0.2" stroke-width="1.2"/>
    <path d="M215.999 663.534C130.341 620.844 65.8555 542.01 42.515 447.002M40.7656 296.502C62.0773 200.024 125.612 119.404 210.999 75.0158M504.999 70.0312C592.689 111.895 659.002 191.328 683.11 287.502M685.88 436.502C664.836 536.189 598.793 619.281 509.999 663.534" stroke="#FBFFCA" stroke-opacity="0.2" stroke-width="1.2"/>
</svg>

