<svg width="465" height="4593" viewBox="0 0 465 4593" fill="none" xmlns="http://www.w3.org/2000/svg">
    <path opacity="0.3" d="M275.955 18V63C275.955 90.6142 298.341 113 325.955 113H394C432.66 113 464 144.34 464 183V847C464 956.352 375.352 1045 266 1045V1045C156.648 1045 68 1133.65 68 1243V2097.94C68 2176.95 132.051 2241 211.062 2241V2241C342.748 2241 449.5 2347.75 449.5 2479.44V3057.25C449.5 3162.6 364.098 3248 258.75 3248V3248C153.402 3248 68 3333.4 68 3438.75V4328.65C68 4356.26 90.3858 4378.65 118 4378.65H214.978C242.592 4378.65 264.978 4401.03 264.978 4428.65V4565.65" stroke="#070707" stroke-width="0.6"/>
    <rect x="280.873" y="2263.81" width="23" height="23" rx="8" transform="rotate(-78.5505 280.873 2263.81)" fill="black" stroke="#F0EFE9" stroke-width="10"/>
    <path d="M263.117 2263.29L276.756 2254.24C278.529 2253.07 279.014 2250.68 277.838 2248.9L274.38 2243.69L268.793 2235.27" stroke="black" stroke-width="0.6"/>
    <rect x="172.866" y="1056.28" width="23" height="23" rx="8" transform="rotate(61.4876 172.866 1056.28)" fill="black" stroke="#F0EFE9" stroke-width="10"/>
    <path d="M187.297 1045.68L182.16 1061.22C181.493 1063.24 182.589 1065.42 184.609 1066.09L190.549 1068.05L200.148 1071.22" stroke="black" stroke-width="0.6"/>
    <rect x="0.203125" y="1000" width="153.6" height="56" rx="28" fill="#CFE0F7"/>
    <path d="M33.8031 1029.4C36.8959 1029.4 39.4031 1026.89 39.4031 1023.8C39.4031 1020.71 36.8959 1018.2 33.8031 1018.2C30.7103 1018.2 28.2031 1020.71 28.2031 1023.8C28.2031 1026.89 30.7103 1029.4 33.8031 1029.4Z" fill="#557F90"/>
    <path d="M43.6 1031.8C43.6 1030.48 42.6249 1029.4 41.4222 1029.4L38.0173 1029.4C37.5207 1029.4 37.0874 1029.77 36.9638 1030.3C36.6006 1031.85 35.3217 1033 33.8 1033C32.2783 1033 30.9994 1031.85 30.6362 1030.3C30.5121 1029.77 30.0798 1029.4 29.5827 1029.4L26.1778 1029.4C24.9751 1029.4 24 1030.48 24 1031.8L24 1036.6C24 1037.26 24.4873 1037.8 25.0889 1037.8L42.5111 1037.8C43.1127 1037.8 43.6 1037.26 43.6 1036.6L43.6 1031.8Z" fill="#557F90"/>
    <path d="M66.8116 1025.88L64.6401 1025.88C64.5565 1025.42 64.4011 1025.01 64.1737 1024.66C63.9464 1024.3 63.6679 1024 63.3385 1023.76C63.009 1023.51 62.6402 1023.33 62.2318 1023.2C61.8281 1023.08 61.3989 1023.01 60.9442 1023.01C60.1229 1023.01 59.3874 1023.22 58.7378 1023.63C58.0928 1024.05 57.5824 1024.65 57.2065 1025.45C56.8353 1026.25 56.6497 1027.22 56.6497 1028.37C56.6497 1029.53 56.8353 1030.51 57.2065 1031.31C57.5824 1032.11 58.0951 1032.71 58.7447 1033.12C59.3944 1033.53 60.1252 1033.73 60.9372 1033.73C61.3873 1033.73 61.8142 1033.67 62.2179 1033.55C62.6262 1033.43 62.9951 1033.24 63.3246 1033C63.654 1032.76 63.9324 1032.47 64.1598 1032.12C64.3918 1031.76 64.5519 1031.36 64.6401 1030.91L66.8116 1030.91C66.6956 1031.61 66.4706 1032.26 66.1365 1032.85C65.8071 1033.43 65.3825 1033.94 64.8628 1034.37C64.3477 1034.79 63.7584 1035.11 63.0949 1035.35C62.4313 1035.58 61.7075 1035.69 60.9233 1035.69C59.689 1035.69 58.5893 1035.4 57.6241 1034.82C56.659 1034.23 55.898 1033.39 55.3412 1032.29C54.789 1031.2 54.5129 1029.89 54.5129 1028.37C54.5129 1026.85 54.7913 1025.54 55.3482 1024.45C55.905 1023.36 56.666 1022.52 57.6311 1021.93C58.5963 1021.35 59.6937 1021.05 60.9233 1021.05C61.6796 1021.05 62.3849 1021.16 63.0392 1021.38C63.6981 1021.59 64.2897 1021.91 64.8141 1022.32C65.3384 1022.74 65.7723 1023.24 66.1156 1023.84C66.459 1024.44 66.691 1025.12 66.8116 1025.88ZM75.5984 1031.07L75.5984 1024.81L77.6865 1024.81L77.6865 1035.5L75.6402 1035.5L75.6402 1033.65L75.5288 1033.65C75.2829 1034.22 74.8885 1034.69 74.3456 1035.08C73.8073 1035.45 73.1368 1035.64 72.3341 1035.64C71.6474 1035.64 71.0395 1035.49 70.5105 1035.19C69.9862 1034.88 69.5732 1034.43 69.2716 1033.83C68.9746 1033.23 68.8261 1032.49 68.8261 1031.61L68.8261 1024.81L70.9073 1024.81L70.9073 1031.36C70.9073 1032.09 71.1091 1032.67 71.5128 1033.1C71.9165 1033.53 72.4408 1033.75 73.0858 1033.75C73.4756 1033.75 73.863 1033.65 74.2482 1033.45C74.6379 1033.26 74.9604 1032.96 75.2156 1032.57C75.4755 1032.18 75.6031 1031.67 75.5984 1031.07ZM80.0908 1035.5L80.0908 1024.81L82.1023 1024.81L82.1023 1026.51L82.2137 1026.51C82.4085 1025.93 82.7519 1025.48 83.2438 1025.15C83.7403 1024.82 84.3017 1024.65 84.9281 1024.65C85.0581 1024.65 85.2112 1024.65 85.3875 1024.66C85.5685 1024.67 85.71 1024.68 85.8121 1024.7L85.8121 1026.69C85.7286 1026.67 85.5801 1026.64 85.3666 1026.61C85.1532 1026.58 84.9397 1026.56 84.7263 1026.56C84.2344 1026.56 83.7959 1026.67 83.4108 1026.88C83.0303 1027.08 82.7287 1027.37 82.506 1027.73C82.2833 1028.09 82.1719 1028.51 82.1719 1028.97L82.1719 1035.5L80.0908 1035.5ZM90.2366 1035.74C89.5591 1035.74 88.9466 1035.61 88.3991 1035.36C87.8515 1035.11 87.4177 1034.74 87.0975 1034.25C86.782 1033.77 86.6242 1033.18 86.6242 1032.48C86.6242 1031.88 86.7402 1031.38 86.9722 1030.99C87.2042 1030.6 87.5174 1030.29 87.9119 1030.06C88.3063 1029.84 88.7471 1029.67 89.2343 1029.55C89.7215 1029.43 90.218 1029.34 90.7238 1029.28C91.3641 1029.21 91.8838 1029.15 92.2829 1029.1C92.6819 1029.05 92.9719 1028.97 93.1529 1028.86C93.3339 1028.75 93.4244 1028.57 93.4244 1028.32L93.4244 1028.27C93.4244 1027.66 93.2527 1027.19 92.9093 1026.86C92.5706 1026.52 92.0648 1026.35 91.392 1026.35C90.6913 1026.35 90.1391 1026.51 89.7354 1026.82C89.3364 1027.13 89.0603 1027.47 88.9072 1027.84L86.9513 1027.4C87.1834 1026.75 87.5221 1026.22 87.9675 1025.83C88.4176 1025.42 88.935 1025.13 89.5197 1024.95C90.1043 1024.76 90.7191 1024.67 91.3641 1024.67C91.791 1024.67 92.2434 1024.72 92.7214 1024.82C93.2039 1024.92 93.654 1025.1 94.0717 1025.37C94.4939 1025.63 94.8396 1026.01 95.1087 1026.5C95.3779 1026.99 95.5124 1027.62 95.5124 1028.4L95.5124 1035.5L93.48 1035.5L93.48 1034.04L93.3965 1034.04C93.262 1034.31 93.0601 1034.57 92.791 1034.83C92.5218 1035.09 92.1762 1035.31 91.7539 1035.48C91.3316 1035.65 90.8259 1035.74 90.2366 1035.74ZM90.689 1034.07C91.2644 1034.07 91.7562 1033.95 92.1646 1033.73C92.5775 1033.5 92.8907 1033.2 93.1042 1032.83C93.3223 1032.46 93.4313 1032.07 93.4313 1031.64L93.4313 1030.27C93.3571 1030.34 93.2132 1030.41 92.9998 1030.47C92.791 1030.54 92.552 1030.59 92.2829 1030.63C92.0138 1030.68 91.7516 1030.72 91.4964 1030.75C91.2412 1030.79 91.0277 1030.81 90.856 1030.84C90.4523 1030.89 90.0834 1030.97 89.7494 1031.09C89.4199 1031.21 89.1554 1031.39 88.9559 1031.62C88.761 1031.84 88.6636 1032.14 88.6636 1032.51C88.6636 1033.02 88.8538 1033.41 89.2343 1033.68C89.6148 1033.94 90.0997 1034.07 90.689 1034.07ZM102.883 1024.81L102.883 1026.48L97.0432 1026.48L97.0432 1024.81L102.883 1024.81ZM98.6092 1022.25L100.69 1022.25L100.69 1032.36C100.69 1032.76 100.751 1033.07 100.871 1033.27C100.992 1033.47 101.147 1033.61 101.338 1033.68C101.533 1033.75 101.744 1033.79 101.971 1033.79C102.138 1033.79 102.284 1033.78 102.41 1033.75C102.535 1033.73 102.632 1033.71 102.702 1033.7L103.078 1035.42C102.957 1035.46 102.785 1035.51 102.563 1035.56C102.34 1035.61 102.062 1035.63 101.727 1035.64C101.18 1035.65 100.669 1035.55 100.196 1035.35C99.7229 1035.14 99.3401 1034.83 99.0477 1034.4C98.7554 1033.97 98.6092 1033.44 98.6092 1032.79L98.6092 1022.25ZM104.793 1035.5L104.793 1024.81L106.874 1024.81L106.874 1035.5L104.793 1035.5ZM105.844 1023.16C105.482 1023.16 105.171 1023.04 104.911 1022.8C104.656 1022.55 104.528 1022.26 104.528 1021.92C104.528 1021.58 104.656 1021.28 104.911 1021.04C105.171 1020.8 105.482 1020.67 105.844 1020.67C106.206 1020.67 106.514 1020.8 106.77 1021.04C107.029 1021.28 107.159 1021.58 107.159 1021.92C107.159 1022.26 107.029 1022.55 106.77 1022.8C106.514 1023.04 106.206 1023.16 105.844 1023.16ZM113.785 1035.72C112.783 1035.72 111.908 1035.49 111.161 1035.03C110.414 1034.57 109.834 1033.92 109.421 1033.1C109.008 1032.27 108.802 1031.31 108.802 1030.2C108.802 1029.09 109.008 1028.12 109.421 1027.29C109.834 1026.46 110.414 1025.82 111.161 1025.36C111.908 1024.9 112.783 1024.67 113.785 1024.67C114.787 1024.67 115.662 1024.9 116.409 1025.36C117.156 1025.82 117.736 1026.46 118.149 1027.29C118.562 1028.12 118.769 1029.09 118.769 1030.2C118.769 1031.31 118.562 1032.27 118.149 1033.1C117.736 1033.92 117.156 1034.57 116.409 1035.03C115.662 1035.49 114.787 1035.72 113.785 1035.72ZM113.792 1033.97C114.442 1033.97 114.98 1033.8 115.407 1033.45C115.834 1033.11 116.149 1032.65 116.353 1032.08C116.562 1031.51 116.667 1030.88 116.667 1030.2C116.667 1029.51 116.562 1028.89 116.353 1028.32C116.149 1027.74 115.834 1027.28 115.407 1026.93C114.98 1026.58 114.442 1026.41 113.792 1026.41C113.138 1026.41 112.595 1026.58 112.163 1026.93C111.736 1027.28 111.419 1027.74 111.21 1028.32C111.006 1028.89 110.904 1029.51 110.904 1030.2C110.904 1030.88 111.006 1031.51 111.21 1032.08C111.419 1032.65 111.736 1033.11 112.163 1033.45C112.595 1033.8 113.138 1033.97 113.792 1033.97ZM122.781 1029.15L122.781 1035.5L120.7 1035.5L120.7 1024.81L122.697 1024.81L122.697 1026.55L122.829 1026.55C123.075 1025.98 123.46 1025.53 123.985 1025.18C124.514 1024.84 125.18 1024.67 125.982 1024.67C126.711 1024.67 127.349 1024.82 127.896 1025.13C128.444 1025.43 128.869 1025.88 129.17 1026.48C129.472 1027.08 129.623 1027.82 129.623 1028.7L129.623 1035.5L127.541 1035.5L127.541 1028.95C127.541 1028.18 127.34 1027.57 126.936 1027.13C126.532 1026.69 125.978 1026.47 125.272 1026.47C124.79 1026.47 124.361 1026.58 123.985 1026.79C123.614 1026.99 123.319 1027.3 123.101 1027.7C122.887 1028.1 122.781 1028.59 122.781 1029.15Z" fill="#557F90"/>
    <rect x="264" y="5" width="23" height="23" rx="11.5" fill="black" stroke="#F0EFE9" stroke-width="10"/>
    <rect x="110.631" y="3305.11" width="23" height="23" rx="8" transform="rotate(40.1056 110.631 3305.11)" fill="black" stroke="#F0EFE9" stroke-width="10"/>
    <path d="M118.719 3288.64L119.601 3304.98C119.716 3307.11 121.531 3308.74 123.655 3308.62L129.903 3308.28L139.997 3307.74" stroke="black" stroke-width="0.6"/>
    <rect x="232" y="4524.65" width="67.5" height="67.5" rx="33.75" fill="#38A574"/>
    <path d="M265.298 4567.76C266.889 4565.38 267.293 4562.42 266.395 4559.71C265.497 4557.01 263.396 4554.84 260.681 4553.83L253.679 4551.23C251.282 4550.47 248.703 4551.79 247.922 4554.14C247.136 4556.52 248.46 4559.06 250.878 4559.83L256.936 4561.76C257.287 4561.87 257.563 4562.14 257.677 4562.49C257.791 4562.83 257.73 4563.21 257.513 4563.5L253.769 4568.55C252.274 4570.57 252.731 4573.39 254.788 4574.86C255.605 4575.44 256.553 4575.72 257.491 4575.72C258.915 4575.72 260.319 4575.08 261.22 4573.86L265.298 4567.76V4567.76Z" fill="#F0EFE9"/>
    <path d="M283.871 4554.15C283.085 4551.77 280.487 4550.48 278.068 4551.25L272.01 4553.18C271.659 4553.29 271.274 4553.23 270.975 4553.02C270.676 4552.8 270.499 4552.46 270.499 4552.1V4545.86C270.499 4543.36 268.438 4541.34 265.894 4541.34C263.35 4541.34 261.289 4543.36 261.289 4545.86V4549.99C261.289 4550.92 261.867 4551.75 262.748 4552.09L272.586 4555.91C273.225 4556.16 273.719 4556.67 273.932 4557.31C274.144 4557.96 274.054 4558.66 273.685 4559.23L268.014 4567.98C267.507 4568.77 267.539 4569.77 268.095 4570.52L270.571 4573.86C271.472 4575.08 272.877 4575.73 274.301 4575.73C275.239 4575.73 276.187 4575.45 277.004 4574.86C279.061 4573.4 279.517 4570.58 278.022 4568.56L274.278 4563.51C274.061 4563.21 274 4562.84 274.114 4562.49C274.228 4562.15 274.504 4561.88 274.855 4561.77L280.913 4559.84C283.332 4559.07 284.656 4556.52 283.87 4554.15L283.871 4554.15Z" fill="#F0EFE9"/>
    <rect x="303.219" y="2177.65" width="144" height="56" rx="28" fill="#FBFFCA"/>
    <path d="M342.101 2197.76V2196.71C342.101 2196.12 341.626 2195.65 341.042 2195.65C340.457 2195.65 339.983 2196.12 339.983 2196.71V2197.76H330.454V2196.71C330.454 2196.12 329.98 2195.65 329.395 2195.65C328.81 2195.65 328.336 2196.12 328.336 2196.71V2197.76H327.278C326.693 2197.76 326.219 2198.23 326.219 2198.82V2214.7C326.219 2215.28 326.693 2215.76 327.278 2215.76H343.159C343.744 2215.76 344.218 2215.28 344.218 2214.7V2198.81L344.219 2198.82C344.219 2198.23 343.745 2197.76 343.16 2197.76H342.101ZM329.925 2203.05C329.047 2203.05 328.336 2202.34 328.336 2201.46C328.336 2200.59 329.047 2199.87 329.925 2199.87C330.802 2199.87 331.513 2200.59 331.513 2201.46C331.513 2202.34 330.802 2203.05 329.925 2203.05ZM335.218 2203.05C334.341 2203.05 333.63 2202.34 333.63 2201.46C333.63 2200.59 334.341 2199.87 335.218 2199.87C336.096 2199.87 336.807 2200.59 336.807 2201.46C336.807 2202.34 336.096 2203.05 335.218 2203.05ZM340.512 2203.05C339.635 2203.05 338.924 2202.34 338.924 2201.46C338.924 2200.59 339.635 2199.87 340.512 2199.87C341.39 2199.87 342.101 2200.59 342.101 2201.46C342.101 2202.34 341.39 2203.05 340.512 2203.05ZM329.925 2208.34C329.047 2208.34 328.336 2207.63 328.336 2206.76C328.336 2205.88 329.047 2205.17 329.925 2205.17C330.802 2205.17 331.513 2205.88 331.513 2206.76C331.513 2207.63 330.802 2208.34 329.925 2208.34ZM335.218 2208.34C334.341 2208.34 333.63 2207.63 333.63 2206.76C333.63 2205.88 334.341 2205.17 335.218 2205.17C336.096 2205.17 336.807 2205.88 336.807 2206.76C336.807 2207.63 336.096 2208.34 335.218 2208.34ZM340.512 2208.34C339.635 2208.34 338.924 2207.63 338.924 2206.76C338.924 2205.88 339.635 2205.17 340.512 2205.17C341.39 2205.17 342.101 2205.88 342.101 2206.76C342.101 2207.63 341.39 2208.34 340.512 2208.34ZM329.925 2213.64C329.047 2213.64 328.336 2212.93 328.336 2212.05C328.336 2211.17 329.047 2210.46 329.925 2210.46C330.802 2210.46 331.513 2211.17 331.513 2212.05C331.513 2212.93 330.802 2213.64 329.925 2213.64ZM335.218 2213.64C334.341 2213.64 333.63 2212.93 333.63 2212.05C333.63 2211.17 334.341 2210.46 335.218 2210.46C336.096 2210.46 336.807 2211.17 336.807 2212.05C336.807 2212.93 336.096 2213.64 335.218 2213.64ZM340.512 2213.64C339.635 2213.64 338.924 2212.93 338.924 2212.05C338.924 2211.17 339.635 2210.46 340.512 2210.46C341.39 2210.46 342.101 2211.17 342.101 2212.05C342.101 2212.93 341.39 2213.64 340.512 2213.64Z" fill="#2F9D6C"/>
    <path d="M356.657 2212.15V2199.06H361.323C362.342 2199.06 363.185 2199.24 363.854 2199.61C364.523 2199.98 365.024 2200.49 365.357 2201.13C365.689 2201.77 365.855 2202.49 365.855 2203.3C365.855 2204.1 365.687 2204.83 365.35 2205.47C365.018 2206.11 364.515 2206.62 363.842 2206.99C363.173 2207.36 362.331 2207.55 361.317 2207.55H358.108V2205.87H361.138C361.781 2205.87 362.303 2205.76 362.704 2205.54C363.104 2205.31 363.398 2205.01 363.586 2204.62C363.773 2204.23 363.867 2203.79 363.867 2203.3C363.867 2202.8 363.773 2202.36 363.586 2201.98C363.398 2201.6 363.102 2201.29 362.697 2201.08C362.297 2200.86 361.768 2200.75 361.112 2200.75H358.632V2212.15H356.657ZM369.568 2199.06V2212.15H367.657V2199.06H369.568ZM374.637 2212.37C374.015 2212.37 373.452 2212.25 372.949 2212.02C372.447 2211.79 372.048 2211.45 371.754 2211C371.464 2210.56 371.319 2210.02 371.319 2209.37C371.319 2208.82 371.426 2208.36 371.639 2208.01C371.852 2207.65 372.14 2207.37 372.502 2207.16C372.864 2206.95 373.269 2206.79 373.716 2206.68C374.164 2206.58 374.62 2206.5 375.084 2206.44C375.672 2206.37 376.15 2206.32 376.516 2206.27C376.883 2206.23 377.149 2206.15 377.315 2206.05C377.481 2205.95 377.564 2205.78 377.564 2205.55V2205.51C377.564 2204.95 377.407 2204.52 377.091 2204.21C376.78 2203.9 376.316 2203.75 375.698 2203.75C375.055 2203.75 374.547 2203.89 374.177 2204.18C373.81 2204.46 373.557 2204.77 373.416 2205.12L371.62 2204.71C371.833 2204.11 372.144 2203.63 372.553 2203.26C372.966 2202.89 373.442 2202.62 373.979 2202.46C374.515 2202.29 375.08 2202.2 375.672 2202.2C376.064 2202.2 376.48 2202.25 376.919 2202.34C377.362 2202.43 377.775 2202.6 378.159 2202.84C378.547 2203.08 378.864 2203.43 379.111 2203.88C379.358 2204.33 379.482 2204.91 379.482 2205.63V2212.15H377.616V2210.81H377.539C377.415 2211.05 377.23 2211.3 376.983 2211.53C376.736 2211.77 376.418 2211.97 376.03 2212.13C375.643 2212.29 375.178 2212.37 374.637 2212.37ZM375.052 2210.83C375.581 2210.83 376.032 2210.73 376.407 2210.52C376.787 2210.31 377.074 2210.04 377.27 2209.7C377.471 2209.36 377.571 2209 377.571 2208.61V2207.34C377.503 2207.41 377.371 2207.47 377.175 2207.53C376.983 2207.59 376.763 2207.64 376.516 2207.68C376.269 2207.72 376.028 2207.75 375.794 2207.79C375.559 2207.82 375.363 2207.84 375.206 2207.87C374.835 2207.91 374.496 2207.99 374.189 2208.1C373.887 2208.21 373.644 2208.37 373.461 2208.58C373.282 2208.79 373.192 2209.06 373.192 2209.4C373.192 2209.87 373.367 2210.23 373.716 2210.47C374.066 2210.71 374.511 2210.83 375.052 2210.83ZM383.579 2206.32V2212.15H381.668V2202.33H383.502V2203.93H383.624C383.85 2203.41 384.203 2202.99 384.685 2202.68C385.171 2202.36 385.782 2202.2 386.519 2202.2C387.188 2202.2 387.774 2202.34 388.277 2202.62C388.78 2202.9 389.17 2203.31 389.447 2203.86C389.724 2204.41 389.862 2205.09 389.862 2205.9V2212.15H387.951V2206.13C387.951 2205.42 387.766 2204.87 387.395 2204.47C387.024 2204.06 386.515 2203.86 385.867 2203.86C385.424 2203.86 385.03 2203.95 384.685 2204.15C384.344 2204.34 384.073 2204.62 383.873 2204.99C383.677 2205.36 383.579 2205.8 383.579 2206.32ZM393.977 2206.32V2212.15H392.066V2202.33H393.9V2203.93H394.021C394.247 2203.41 394.601 2202.99 395.083 2202.68C395.568 2202.36 396.18 2202.2 396.917 2202.2C397.586 2202.2 398.172 2202.34 398.675 2202.62C399.178 2202.9 399.568 2203.31 399.845 2203.86C400.122 2204.41 400.26 2205.09 400.26 2205.9V2212.15H398.349V2206.13C398.349 2205.42 398.164 2204.87 397.793 2204.47C397.422 2204.06 396.913 2203.86 396.265 2203.86C395.822 2203.86 395.428 2203.95 395.083 2204.15C394.742 2204.34 394.471 2204.62 394.271 2204.99C394.075 2205.36 393.977 2205.8 393.977 2206.32ZM402.463 2212.15V2202.33H404.375V2212.15H402.463ZM403.429 2200.82C403.096 2200.82 402.811 2200.7 402.572 2200.48C402.338 2200.26 402.22 2199.99 402.22 2199.68C402.22 2199.36 402.338 2199.09 402.572 2198.87C402.811 2198.65 403.096 2198.53 403.429 2198.53C403.761 2198.53 404.044 2198.65 404.279 2198.87C404.517 2199.09 404.637 2199.36 404.637 2199.68C404.637 2199.99 404.517 2200.26 404.279 2200.48C404.044 2200.7 403.761 2200.82 403.429 2200.82ZM408.497 2206.32V2212.15H406.586V2202.33H408.42V2203.93H408.542C408.768 2203.41 409.121 2202.99 409.603 2202.68C410.089 2202.36 410.7 2202.2 411.437 2202.2C412.106 2202.2 412.692 2202.34 413.195 2202.62C413.698 2202.9 414.088 2203.31 414.365 2203.86C414.642 2204.41 414.78 2205.09 414.78 2205.9V2212.15H412.869V2206.13C412.869 2205.42 412.684 2204.87 412.313 2204.47C411.942 2204.06 411.433 2203.86 410.785 2203.86C410.342 2203.86 409.948 2203.95 409.603 2204.15C409.262 2204.34 408.991 2204.62 408.791 2204.99C408.595 2205.36 408.497 2205.8 408.497 2206.32ZM421.1 2216.03C420.32 2216.03 419.649 2215.93 419.087 2215.73C418.528 2215.52 418.072 2215.25 417.719 2214.92C417.365 2214.58 417.101 2214.21 416.926 2213.81L418.569 2213.13C418.684 2213.32 418.837 2213.52 419.029 2213.73C419.225 2213.94 419.489 2214.12 419.822 2214.27C420.158 2214.42 420.591 2214.49 421.119 2214.49C421.844 2214.49 422.442 2214.32 422.915 2213.96C423.388 2213.61 423.625 2213.06 423.625 2212.29V2210.36H423.503C423.388 2210.57 423.222 2210.8 423.005 2211.06C422.792 2211.31 422.498 2211.53 422.123 2211.72C421.748 2211.91 421.26 2212 420.659 2212C419.883 2212 419.185 2211.82 418.562 2211.46C417.944 2211.09 417.454 2210.55 417.092 2209.84C416.734 2209.12 416.555 2208.25 416.555 2207.2C416.555 2206.16 416.732 2205.26 417.086 2204.52C417.444 2203.77 417.934 2203.2 418.556 2202.8C419.178 2202.4 419.883 2202.2 420.672 2202.2C421.281 2202.2 421.773 2202.3 422.148 2202.51C422.523 2202.71 422.815 2202.94 423.024 2203.21C423.237 2203.48 423.401 2203.72 423.516 2203.92H423.657V2202.33H425.53V2212.37C425.53 2213.21 425.334 2213.9 424.942 2214.44C424.55 2214.98 424.019 2215.38 423.35 2215.64C422.685 2215.9 421.935 2216.03 421.1 2216.03ZM421.081 2210.42C421.631 2210.42 422.095 2210.29 422.474 2210.03C422.858 2209.77 423.148 2209.4 423.344 2208.92C423.544 2208.43 423.644 2207.85 423.644 2207.18C423.644 2206.51 423.546 2205.93 423.35 2205.43C423.154 2204.93 422.866 2204.54 422.487 2204.25C422.108 2203.97 421.639 2203.83 421.081 2203.83C420.506 2203.83 420.026 2203.98 419.643 2204.27C419.259 2204.57 418.969 2204.97 418.773 2205.48C418.582 2205.98 418.486 2206.55 418.486 2207.18C418.486 2207.82 418.584 2208.38 418.78 2208.87C418.976 2209.36 419.266 2209.73 419.649 2210.01C420.037 2210.28 420.514 2210.42 421.081 2210.42Z" fill="#2F9D6C"/>
</svg>
