<svg width="242" height="3695" viewBox="0 0 242 3695" fill="none" xmlns="http://www.w3.org/2000/svg">
    <path opacity="0.3" d="M17 29L17 3391.96C17 3443.88 59.0852 3485.96 111 3485.96V3485.96C162.915 3485.96 205 3528.05 205 3579.96V3662" stroke="#070707" stroke-width="0.6"/>
    <rect x="5.34375" y="2688.59" width="23" height="23" rx="8" fill="black" stroke="#F0EFE9" stroke-width="10"/>
    <path d="M7.58594 2675.7L15.1981 2683.32C16.1877 2684.3 17.7921 2684.3 18.7817 2683.32L21.6919 2680.41L26.3939 2675.7" stroke="black"/>
    <rect x="5.34375" y="1759.59" width="23" height="23" rx="8" fill="black" stroke="#F0EFE9" stroke-width="10"/>
    <path d="M7.58594 1746.7L15.1981 1754.32C16.1877 1755.3 17.7921 1755.3 18.7817 1754.32L21.6919 1751.41L26.3939 1746.7" stroke="black"/>
    <rect x="31" y="1751" width="110" height="40" rx="20" fill="#FBFFCA"/>
    <path d="M59.5879 1765.74V1765.04C59.5879 1764.65 59.2717 1764.33 58.8821 1764.33C58.4924 1764.33 58.1762 1764.65 58.1762 1765.04V1765.74H51.8234V1765.04C51.8234 1764.65 51.5076 1764.33 51.1176 1764.33C50.7276 1764.33 50.4117 1764.65 50.4117 1765.04V1765.74H49.7059C49.3159 1765.74 49 1766.05 49 1766.44V1777.03C49 1777.42 49.3162 1777.74 49.7059 1777.74H60.2938C60.6838 1777.74 60.9996 1777.42 60.9996 1777.03V1766.44L61 1766.44C61 1766.05 60.6841 1765.74 60.2941 1765.74H59.5879ZM51.4705 1769.27C50.8854 1769.27 50.4117 1768.79 50.4117 1768.21C50.4117 1767.62 50.8857 1767.15 51.4705 1767.15C52.0553 1767.15 52.5293 1767.62 52.5293 1768.21C52.5293 1768.79 52.0553 1769.27 51.4705 1769.27ZM54.9998 1769.27C54.4147 1769.27 53.941 1768.79 53.941 1768.21C53.941 1767.62 54.415 1767.15 54.9998 1767.15C55.5846 1767.15 56.0586 1767.62 56.0586 1768.21C56.0586 1768.79 55.5846 1769.27 54.9998 1769.27ZM58.5291 1769.27C57.944 1769.27 57.4703 1768.79 57.4703 1768.21C57.4703 1767.62 57.9443 1767.15 58.5291 1767.15C59.1139 1767.15 59.5879 1767.62 59.5879 1768.21C59.5879 1768.79 59.1139 1769.27 58.5291 1769.27ZM51.4705 1772.8C50.8854 1772.8 50.4117 1772.32 50.4117 1771.74C50.4117 1771.15 50.8857 1770.68 51.4705 1770.68C52.0553 1770.68 52.5293 1771.15 52.5293 1771.74C52.5293 1772.32 52.0553 1772.8 51.4705 1772.8ZM54.9998 1772.8C54.4147 1772.8 53.941 1772.32 53.941 1771.74C53.941 1771.15 54.415 1770.68 54.9998 1770.68C55.5846 1770.68 56.0586 1771.15 56.0586 1771.74C56.0586 1772.32 55.5846 1772.8 54.9998 1772.8ZM58.5291 1772.8C57.944 1772.8 57.4703 1772.32 57.4703 1771.74C57.4703 1771.15 57.9443 1770.68 58.5291 1770.68C59.1139 1770.68 59.5879 1771.15 59.5879 1771.74C59.5879 1772.32 59.1139 1772.8 58.5291 1772.8ZM51.4705 1776.33C50.8854 1776.33 50.4117 1775.85 50.4117 1775.27C50.4117 1774.68 50.8857 1774.21 51.4705 1774.21C52.0553 1774.21 52.5293 1774.68 52.5293 1775.27C52.5293 1775.85 52.0553 1776.33 51.4705 1776.33ZM54.9998 1776.33C54.4147 1776.33 53.941 1775.85 53.941 1775.27C53.941 1774.68 54.415 1774.21 54.9998 1774.21C55.5846 1774.21 56.0586 1774.68 56.0586 1775.27C56.0586 1775.85 55.5846 1776.33 54.9998 1776.33ZM58.5291 1776.33C57.944 1776.33 57.4703 1775.85 57.4703 1775.27C57.4703 1774.68 57.9443 1774.21 58.5291 1774.21C59.1139 1774.21 59.5879 1774.68 59.5879 1775.27C59.5879 1775.85 59.1139 1776.33 58.5291 1776.33Z" fill="#2F9D6C"/>
    <path d="M70.1186 1776V1765.82H73.7479C74.54 1765.82 75.1963 1765.96 75.7166 1766.25C76.237 1766.54 76.6264 1766.93 76.8849 1767.43C77.1435 1767.93 77.2727 1768.49 77.2727 1769.11C77.2727 1769.74 77.1418 1770.3 76.88 1770.8C76.6214 1771.3 76.2304 1771.7 75.7067 1771.99C75.1863 1772.28 74.5317 1772.42 73.7429 1772.42H71.2472V1771.12H73.6037C74.1042 1771.12 74.5102 1771.03 74.8217 1770.86C75.1333 1770.68 75.362 1770.45 75.5078 1770.14C75.6536 1769.84 75.7266 1769.5 75.7266 1769.11C75.7266 1768.73 75.6536 1768.39 75.5078 1768.09C75.362 1767.79 75.1316 1767.56 74.8168 1767.39C74.5052 1767.22 74.0942 1767.14 73.5838 1767.14H71.6548V1776H70.1186ZM80.1609 1765.82V1776H78.6744V1765.82H80.1609ZM84.103 1776.17C83.6191 1776.17 83.1816 1776.08 82.7905 1775.9C82.3994 1775.72 82.0895 1775.45 81.8608 1775.11C81.6354 1774.77 81.5227 1774.34 81.5227 1773.84C81.5227 1773.41 81.6056 1773.06 81.7713 1772.78C81.937 1772.5 82.1608 1772.28 82.4425 1772.12C82.7242 1771.95 83.0391 1771.83 83.3871 1771.75C83.7351 1771.67 84.0897 1771.6 84.451 1771.56C84.9084 1771.51 85.2796 1771.46 85.5646 1771.43C85.8497 1771.39 86.0568 1771.34 86.1861 1771.26C86.3154 1771.18 86.38 1771.05 86.38 1770.87V1770.83C86.38 1770.4 86.2574 1770.06 86.0121 1769.83C85.7701 1769.59 85.4089 1769.47 84.9283 1769.47C84.4278 1769.47 84.0334 1769.58 83.745 1769.8C83.46 1770.02 83.2628 1770.26 83.1534 1770.53L81.7564 1770.21C81.9221 1769.75 82.1641 1769.37 82.4823 1769.09C82.8038 1768.8 83.1733 1768.59 83.5909 1768.46C84.0085 1768.33 84.4477 1768.26 84.9084 1768.26C85.2133 1768.26 85.5365 1768.3 85.8779 1768.37C86.2226 1768.44 86.544 1768.57 86.8423 1768.76C87.144 1768.95 87.3909 1769.22 87.5831 1769.57C87.7753 1769.92 87.8715 1770.37 87.8715 1770.93V1776H86.4198V1774.96H86.3601C86.264 1775.15 86.1198 1775.34 85.9276 1775.52C85.7353 1775.71 85.4884 1775.86 85.1868 1775.99C84.8852 1776.11 84.5239 1776.17 84.103 1776.17ZM84.4262 1774.98C84.8371 1774.98 85.1885 1774.89 85.4801 1774.73C85.7751 1774.57 85.9988 1774.36 86.1513 1774.1C86.3071 1773.83 86.385 1773.55 86.385 1773.25V1772.26C86.3319 1772.31 86.2292 1772.36 86.0767 1772.41C85.9276 1772.45 85.7569 1772.49 85.5646 1772.52C85.3724 1772.55 85.1851 1772.58 85.0029 1772.61C84.8206 1772.63 84.6681 1772.65 84.5455 1772.67C84.2571 1772.71 83.9936 1772.77 83.755 1772.85C83.5197 1772.94 83.3307 1773.06 83.1882 1773.23C83.049 1773.38 82.9794 1773.6 82.9794 1773.86C82.9794 1774.23 83.1153 1774.51 83.3871 1774.7C83.6589 1774.88 84.0052 1774.98 84.4262 1774.98ZM91.0579 1771.47V1776H89.5714V1768.36H90.9982V1769.61H91.0927C91.2684 1769.2 91.5435 1768.88 91.918 1768.63C92.2958 1768.39 92.7714 1768.26 93.3448 1768.26C93.8652 1768.26 94.3209 1768.37 94.712 1768.59C95.1031 1768.81 95.4064 1769.13 95.6218 1769.56C95.8373 1769.98 95.945 1770.51 95.945 1771.14V1776H94.4585V1771.32C94.4585 1770.77 94.3143 1770.34 94.0259 1770.02C93.7376 1769.71 93.3415 1769.55 92.8377 1769.55C92.493 1769.55 92.1865 1769.63 91.918 1769.78C91.6528 1769.92 91.4424 1770.14 91.2866 1770.43C91.1341 1770.72 91.0579 1771.06 91.0579 1771.47ZM99.1451 1771.47V1776H97.6586V1768.36H99.0854V1769.61H99.1799C99.3556 1769.2 99.6307 1768.88 100.005 1768.63C100.383 1768.39 100.859 1768.26 101.432 1768.26C101.952 1768.26 102.408 1768.37 102.799 1768.59C103.19 1768.81 103.494 1769.13 103.709 1769.56C103.924 1769.98 104.032 1770.51 104.032 1771.14V1776H102.546V1771.32C102.546 1770.77 102.401 1770.34 102.113 1770.02C101.825 1769.71 101.429 1769.55 100.925 1769.55C100.58 1769.55 100.274 1769.63 100.005 1769.78C99.74 1769.92 99.5296 1770.14 99.3738 1770.43C99.2213 1770.72 99.1451 1771.06 99.1451 1771.47ZM105.746 1776V1768.36H107.232V1776H105.746ZM106.496 1767.19C106.238 1767.19 106.016 1767.1 105.83 1766.93C105.648 1766.75 105.557 1766.54 105.557 1766.3C105.557 1766.06 105.648 1765.85 105.83 1765.67C106.016 1765.5 106.238 1765.41 106.496 1765.41C106.755 1765.41 106.975 1765.5 107.158 1765.67C107.343 1765.85 107.436 1766.06 107.436 1766.3C107.436 1766.54 107.343 1766.75 107.158 1766.93C106.975 1767.1 106.755 1767.19 106.496 1767.19ZM110.439 1771.47V1776H108.952V1768.36H110.379V1769.61H110.473C110.649 1769.2 110.924 1768.88 111.299 1768.63C111.677 1768.39 112.152 1768.26 112.726 1768.26C113.246 1768.26 113.702 1768.37 114.093 1768.59C114.484 1768.81 114.787 1769.13 115.003 1769.56C115.218 1769.98 115.326 1770.51 115.326 1771.14V1776H113.839V1771.32C113.839 1770.77 113.695 1770.34 113.407 1770.02C113.118 1769.71 112.722 1769.55 112.218 1769.55C111.874 1769.55 111.567 1769.63 111.299 1769.78C111.034 1769.92 110.823 1770.14 110.667 1770.43C110.515 1770.72 110.439 1771.06 110.439 1771.47ZM120.241 1779.02C119.634 1779.02 119.112 1778.94 118.675 1778.78C118.241 1778.63 117.886 1778.41 117.611 1778.15C117.336 1777.89 117.13 1777.6 116.995 1777.29L118.272 1776.77C118.362 1776.91 118.481 1777.07 118.63 1777.23C118.783 1777.39 118.988 1777.53 119.247 1777.65C119.509 1777.77 119.845 1777.82 120.256 1777.82C120.819 1777.82 121.285 1777.69 121.653 1777.41C122.021 1777.14 122.205 1776.71 122.205 1776.11V1774.61H122.11C122.021 1774.77 121.892 1774.95 121.723 1775.15C121.557 1775.35 121.328 1775.52 121.036 1775.67C120.745 1775.81 120.365 1775.89 119.898 1775.89C119.295 1775.89 118.751 1775.74 118.267 1775.46C117.787 1775.18 117.406 1774.76 117.124 1774.21C116.845 1773.65 116.706 1772.96 116.706 1772.15C116.706 1771.34 116.844 1770.64 117.119 1770.06C117.397 1769.48 117.778 1769.04 118.262 1768.73C118.746 1768.42 119.295 1768.26 119.908 1768.26C120.382 1768.26 120.765 1768.34 121.056 1768.5C121.348 1768.66 121.575 1768.84 121.737 1769.05C121.903 1769.26 122.031 1769.44 122.12 1769.6H122.23V1768.36H123.686V1776.17C123.686 1776.83 123.534 1777.36 123.229 1777.78C122.924 1778.21 122.511 1778.52 121.991 1778.72C121.474 1778.92 120.891 1779.02 120.241 1779.02ZM120.226 1774.65C120.654 1774.65 121.015 1774.55 121.31 1774.35C121.608 1774.15 121.834 1773.86 121.986 1773.49C122.142 1773.11 122.22 1772.66 122.22 1772.13C122.22 1771.62 122.143 1771.17 121.991 1770.77C121.839 1770.38 121.615 1770.08 121.32 1769.86C121.025 1769.64 120.66 1769.53 120.226 1769.53C119.779 1769.53 119.406 1769.64 119.107 1769.88C118.809 1770.1 118.584 1770.42 118.431 1770.81C118.282 1771.2 118.208 1771.64 118.208 1772.13C118.208 1772.63 118.284 1773.07 118.436 1773.45C118.589 1773.83 118.814 1774.12 119.112 1774.33C119.414 1774.55 119.785 1774.65 120.226 1774.65Z" fill="#2F9D6C"/>
    <rect x="181" y="3645" width="50" height="50" rx="25" fill="#38A574"/>
    <path d="M205.664 3676.94C206.843 3675.17 207.142 3672.98 206.477 3670.97C205.812 3668.97 204.255 3667.37 202.244 3666.62L197.057 3664.69C195.282 3664.13 193.372 3665.1 192.793 3666.85C192.211 3668.61 193.191 3670.49 194.982 3671.06L199.47 3672.49C199.73 3672.57 199.934 3672.78 200.019 3673.03C200.103 3673.28 200.058 3673.56 199.897 3673.78L197.124 3677.52C196.017 3679.02 196.355 3681.11 197.879 3682.19C198.484 3682.63 199.186 3682.83 199.881 3682.83C200.936 3682.83 201.976 3682.36 202.643 3681.45L205.664 3676.94V3676.94Z" fill="#F0EFE9"/>
    <path d="M219.423 3666.85C218.841 3665.09 216.916 3664.13 215.124 3664.7L210.637 3666.13C210.377 3666.22 210.091 3666.17 209.87 3666.01C209.648 3665.86 209.518 3665.6 209.518 3665.34V3660.71C209.518 3658.86 207.991 3657.37 206.106 3657.37C204.222 3657.37 202.695 3658.86 202.695 3660.71V3663.77C202.695 3664.46 203.124 3665.08 203.776 3665.33L211.063 3668.16C211.537 3668.34 211.903 3668.72 212.06 3669.2C212.218 3669.67 212.151 3670.19 211.877 3670.61L207.677 3677.1C207.301 3677.68 207.325 3678.43 207.737 3678.98L209.571 3681.46C210.238 3682.36 211.279 3682.84 212.334 3682.84C213.029 3682.84 213.731 3682.63 214.336 3682.2C215.86 3681.11 216.197 3679.02 215.09 3677.53L212.317 3673.78C212.156 3673.57 212.111 3673.29 212.195 3673.03C212.28 3672.78 212.484 3672.58 212.744 3672.49L217.232 3671.07C219.024 3670.49 220.004 3668.61 219.422 3666.85L219.423 3666.85Z" fill="#F0EFE9"/>
    <rect x="5.34375" y="888.586" width="23" height="23" rx="8" fill="black" stroke="#F0EFE9" stroke-width="10"/>
    <path d="M7.58594 875.703L15.1981 883.315C16.1877 884.305 17.7921 884.305 18.7817 883.315L21.6919 880.405L26.3939 875.703" stroke="black"/>
    <rect x="31" y="880" width="110" height="40" rx="20" fill="#CFE0F7"/>
    <path d="M55 901C57.2091 901 59 899.209 59 897C59 894.791 57.2091 893 55 893C52.7909 893 51 894.791 51 897C51 899.209 52.7909 901 55 901Z" fill="#557F90"/>
    <path d="M62 902.714C62 901.768 61.3035 901 60.4444 901L58.0123 901C57.6577 901 57.3481 901.265 57.2598 901.643C57.0004 902.752 56.0869 903.571 55 903.571C53.9131 903.571 52.9996 902.752 52.7402 901.644C52.6515 901.265 52.3427 901 51.9877 901L49.5556 901C48.6965 901 48 901.768 48 902.714L48 906.143C48 906.616 48.3481 907 48.7778 907L61.2222 907C61.6519 907 62 906.616 62 906.143L62 902.714Z" fill="#557F90"/>
    <path d="M78.5753 898.129L77.0241 898.129C76.9645 897.798 76.8535 897.506 76.6911 897.254C76.5286 897.002 76.3298 896.789 76.0945 896.613C75.8591 896.437 75.5956 896.305 75.304 896.215C75.0156 896.126 74.709 896.081 74.3842 896.081C73.7976 896.081 73.2723 896.228 72.8082 896.523C72.3475 896.818 71.983 897.251 71.7145 897.821C71.4493 898.391 71.3168 899.087 71.3168 899.909C71.3168 900.738 71.4493 901.437 71.7145 902.007C71.983 902.577 72.3492 903.008 72.8132 903.3C73.2772 903.591 73.7992 903.737 74.3793 903.737C74.7008 903.737 75.0057 903.694 75.294 903.608C75.5857 903.518 75.8492 903.388 76.0845 903.215C76.3198 903.043 76.5187 902.832 76.6811 902.584C76.8468 902.332 76.9612 902.044 77.0241 901.719L78.5753 901.724C78.4924 902.224 78.3317 902.685 78.093 903.106C77.8577 903.523 77.5545 903.885 77.1832 904.19C76.8153 904.491 76.3944 904.725 75.9205 904.891C75.4465 905.056 74.9295 905.139 74.3693 905.139C73.4877 905.139 72.7022 904.93 72.0128 904.513C71.3234 904.092 70.7798 903.49 70.3821 902.708C69.9877 901.926 69.7905 900.993 69.7905 899.909C69.7905 898.822 69.9893 897.889 70.3871 897.11C70.7848 896.328 71.3284 895.728 72.0178 895.31C72.7071 894.889 73.491 894.679 74.3693 894.679C74.9096 894.679 75.4134 894.757 75.8807 894.913C76.3513 895.065 76.7739 895.29 77.1484 895.589C77.523 895.884 77.8329 896.245 78.0781 896.673C78.3234 897.097 78.4891 897.582 78.5753 898.129ZM84.8516 901.833L84.8516 897.364L86.343 897.364L86.343 905L84.8814 905L84.8814 903.678L84.8019 903.678C84.6262 904.085 84.3445 904.425 83.9567 904.697C83.5722 904.965 83.0933 905.099 82.5199 905.099C82.0294 905.099 81.5952 904.992 81.2173 904.776C80.8428 904.558 80.5478 904.234 80.3324 903.807C80.1203 903.379 80.0142 902.851 80.0142 902.221L80.0142 897.364L81.5007 897.364L81.5007 902.042C81.5007 902.562 81.6449 902.977 81.9332 903.285C82.2216 903.593 82.5961 903.747 83.0568 903.747C83.3352 903.747 83.612 903.678 83.8871 903.538C84.1655 903.399 84.3958 903.189 84.5781 902.907C84.7637 902.625 84.8549 902.267 84.8516 901.833ZM88.0604 905L88.0604 897.364L89.4972 897.364L89.4972 898.577L89.5767 898.577C89.7159 898.166 89.9612 897.843 90.3125 897.607C90.6672 897.369 91.0682 897.249 91.5156 897.249C91.6084 897.249 91.7178 897.253 91.8438 897.259C91.973 897.266 92.0741 897.274 92.147 897.284L92.147 898.706C92.0874 898.689 91.9813 898.671 91.8289 898.651C91.6764 898.628 91.5239 898.616 91.3715 898.616C91.0201 898.616 90.7069 898.691 90.4318 898.84C90.1601 898.986 89.9446 899.19 89.7855 899.452C89.6264 899.71 89.5469 900.005 89.5469 900.337L89.5469 905L88.0604 905ZM95.3074 905.169C94.8235 905.169 94.386 905.08 93.9949 904.901C93.6038 904.718 93.2939 904.455 93.0652 904.11C92.8398 903.765 92.7271 903.343 92.7271 902.842C92.7271 902.411 92.81 902.057 92.9757 901.778C93.1414 901.5 93.3651 901.28 93.6469 901.117C93.9286 900.955 94.2435 900.832 94.5915 900.749C94.9395 900.666 95.2941 900.603 95.6554 900.56C96.1128 900.507 96.484 900.464 96.769 900.431C97.0541 900.395 97.2612 900.337 97.3905 900.257C97.5197 900.178 97.5844 900.048 97.5844 899.869L97.5844 899.835C97.5844 899.4 97.4617 899.064 97.2165 898.825C96.9745 898.587 96.6132 898.467 96.1327 898.467C95.6322 898.467 95.2378 898.578 94.9494 898.8C94.6644 899.019 94.4672 899.263 94.3578 899.531L92.9608 899.213C93.1265 898.749 93.3685 898.375 93.6866 898.089C94.0081 897.801 94.3777 897.592 94.7953 897.463C95.2129 897.33 95.6521 897.264 96.1128 897.264C96.4177 897.264 96.7408 897.301 97.0822 897.374C97.4269 897.443 97.7484 897.572 98.0467 897.761C98.3483 897.95 98.5953 898.22 98.7875 898.572C98.9797 898.92 99.0758 899.372 99.0758 899.929L99.0758 905L97.6241 905L97.6241 903.956L97.5645 903.956C97.4684 904.148 97.3242 904.337 97.1319 904.523C96.9397 904.708 96.6928 904.862 96.3912 904.985C96.0896 905.108 95.7283 905.169 95.3074 905.169ZM95.6305 903.976C96.0415 903.976 96.3928 903.895 96.6845 903.732C96.9795 903.57 97.2032 903.358 97.3557 903.096C97.5114 902.831 97.5893 902.547 97.5893 902.246L97.5893 901.261C97.5363 901.314 97.4336 901.364 97.2811 901.411C97.1319 901.454 96.9613 901.492 96.769 901.525C96.5768 901.555 96.3895 901.583 96.2072 901.609C96.0249 901.633 95.8725 901.652 95.7498 901.669C95.4615 901.705 95.198 901.767 94.9594 901.853C94.724 901.939 94.5351 902.063 94.3926 902.226C94.2534 902.385 94.1838 902.597 94.1838 902.862C94.1838 903.23 94.3197 903.509 94.5915 903.697C94.8632 903.883 95.2096 903.976 95.6305 903.976ZM104.34 897.364L104.34 898.557L100.169 898.557L100.169 897.364L104.34 897.364ZM101.288 895.534L102.774 895.534L102.774 902.758C102.774 903.046 102.817 903.263 102.904 903.409C102.99 903.552 103.101 903.649 103.237 903.702C103.376 903.752 103.527 903.777 103.689 903.777C103.808 903.777 103.913 903.769 104.002 903.752C104.092 903.736 104.161 903.722 104.211 903.712L104.48 904.94C104.393 904.973 104.271 905.007 104.112 905.04C103.953 905.076 103.754 905.096 103.515 905.099C103.124 905.106 102.759 905.036 102.421 904.891C102.083 904.745 101.81 904.519 101.601 904.214C101.392 903.91 101.288 903.527 101.288 903.066L101.288 895.534ZM105.705 905L105.705 897.364L107.191 897.364L107.191 905L105.705 905ZM106.455 896.185C106.197 896.185 105.975 896.099 105.789 895.927C105.607 895.751 105.516 895.542 105.516 895.3C105.516 895.055 105.607 894.846 105.789 894.674C105.975 894.498 106.197 894.411 106.455 894.411C106.714 894.411 106.934 894.498 107.117 894.674C107.302 894.846 107.395 895.055 107.395 895.3C107.395 895.542 107.302 895.751 107.117 895.927C106.934 896.099 106.714 896.185 106.455 896.185ZM112.128 905.154C111.412 905.154 110.787 904.99 110.253 904.662C109.72 904.334 109.305 903.875 109.011 903.285C108.716 902.695 108.568 902.005 108.568 901.217C108.568 900.424 108.716 899.732 109.011 899.138C109.305 898.545 109.72 898.085 110.253 897.756C110.787 897.428 111.412 897.264 112.128 897.264C112.844 897.264 113.468 897.428 114.002 897.756C114.536 898.085 114.95 898.545 115.245 899.138C115.54 899.732 115.687 900.424 115.687 901.217C115.687 902.005 115.54 902.695 115.245 903.285C114.95 903.875 114.536 904.334 114.002 904.662C113.468 904.99 112.844 905.154 112.128 905.154ZM112.133 903.906C112.597 903.906 112.981 903.784 113.286 903.538C113.591 903.293 113.816 902.967 113.962 902.559C114.111 902.151 114.186 901.702 114.186 901.212C114.186 900.724 114.111 900.277 113.962 899.869C113.816 899.458 113.591 899.129 113.286 898.88C112.981 898.631 112.597 898.507 112.133 898.507C111.665 898.507 111.278 898.631 110.969 898.88C110.664 899.129 110.437 899.458 110.288 899.869C110.142 900.277 110.069 900.724 110.069 901.212C110.069 901.702 110.142 902.151 110.288 902.559C110.437 902.967 110.664 903.293 110.969 903.538C111.278 903.784 111.665 903.906 112.133 903.906ZM118.553 900.466L118.553 905L117.067 905L117.067 897.364L118.493 897.364L118.493 898.607L118.588 898.607C118.764 898.202 119.039 897.877 119.413 897.632C119.791 897.387 120.267 897.264 120.84 897.264C121.36 897.264 121.816 897.374 122.207 897.592C122.598 897.808 122.902 898.129 123.117 898.557C123.332 898.984 123.44 899.513 123.44 900.143L123.44 905L121.954 905L121.954 900.322C121.954 899.768 121.81 899.336 121.521 899.024C121.233 898.709 120.837 898.552 120.333 898.552C119.988 898.552 119.682 898.626 119.413 898.776C119.148 898.925 118.938 899.143 118.782 899.432C118.629 899.717 118.553 900.062 118.553 900.466Z" fill="#557F90"/>
    <rect x="6" y="5" width="23" height="23" rx="11.5" fill="black" stroke="#F0EFE9" stroke-width="10"/>
</svg>
