<svg width="151" height="48" viewBox="0 0 151 48" fill="none" xmlns="http://www.w3.org/2000/svg">
<path d="M104.34 40.4554H98.236V14.8702H104.239V20.5215C105.097 18.4665 107.418 14.4078 113.017 14.4078C113.724 14.4078 114.228 14.4592 114.682 14.5619V20.9326C113.774 20.8298 112.866 20.7784 111.958 20.7784C106.661 20.7784 104.34 23.3986 104.34 29.6665V40.4554Z" fill="white"/>
<path d="M83.3083 40.9942C75.8924 40.9942 71.0493 35.908 71.0493 27.4309C71.0493 19.2622 76.2455 13.8677 83.2074 13.8677C91.2792 13.8677 95.7186 20.4952 94.9114 28.9722H77.204C77.4058 34.1612 80.1805 36.0621 83.4092 36.0621C86.9406 36.0621 88.6054 33.5961 89.5135 31.4383L95.0628 33.5447C93.4485 37.552 89.9675 40.9942 83.3083 40.9942ZM77.3554 24.3484H88.8072C88.6054 20.5979 86.3856 18.5429 83.2074 18.5429C80.1805 18.5429 77.8094 20.5979 77.3554 24.3484Z" fill="white"/>
<path d="M38.6652 40.9428C33.015 40.9428 28.2224 38.2713 27.163 33.596L32.8132 31.7465C33.1663 33.185 34.3771 36.319 38.9175 36.319C41.8435 36.319 43.4074 35.086 43.4074 33.3392C43.4074 31.9006 42.6507 30.719 39.7247 30.1539L36.3446 29.486C31.5015 28.5098 28.1719 26.7631 28.1719 21.831C28.1719 17.053 32.3592 13.8677 38.4634 13.8677C44.7191 13.8677 47.8469 17.1558 48.9063 20.0328L43.7101 22.2934C43.0038 20.3411 41.339 18.3888 38.2112 18.3888C35.3861 18.3888 34.1249 19.7246 34.1249 21.2658C34.1249 22.7557 34.8816 23.5264 37.9085 24.0915L41.1877 24.708C45.1227 25.53 49.7639 27.4823 49.7639 32.7227C49.7639 37.7061 45.6776 40.9428 38.6652 40.9428Z" fill="white"/>
<path d="M8.43696 40.9942C3.74524 40.9942 0.41564 38.1685 0.41564 33.6474C0.41564 27.4227 6.16515 24.9453 13.0869 23.9016C14.8471 23.6362 15.8775 23.221 15.8775 21.6634C15.8775 20.1058 14.214 18.5943 11.6152 18.5943C7.88203 18.5943 6.31812 20.6493 5.66229 22.9099L0.0625 21.42C0.617434 17.6181 4.55242 13.8677 11.6152 13.8677C18.5267 13.8677 22.3103 17.1558 22.3103 23.4236V33.7502C22.3103 34.9832 22.5121 35.2915 23.8238 35.2915H26.1444V40.2235H21.4527C18.2744 40.2235 17.1646 38.6823 16.8619 36.4217C15.3484 38.8364 12.6746 40.9942 8.43696 40.9942ZM10.4549 36.2676C13.3809 36.2676 16.206 34.2639 16.206 29.6915V27.6365C11.0603 28.2016 6.67126 29.3832 6.67126 33.0823C6.67126 35.0346 7.93247 36.2676 10.4549 36.2676Z" fill="white"/>
<path d="M62.8927 40.4592H70.3591V35.373H66.0563C63.0595 35.373 62.6909 34.6337 62.6909 31.9065V19.7547H69.3501V14.874H64.7313C63.6044 14.874 62.6909 13.9437 62.6909 12.7961V6.85938H56.5362V12.7961C56.5362 13.9437 55.6227 14.874 54.4958 14.874L51.0877 14.8886V19.7547H56.5362V33.9345C56.5362 37.9932 58.8064 40.4592 62.8927 40.4592Z" fill="white"/>
<path d="M133.835 23.6585C135.207 21.526 135.556 18.8735 134.781 16.4481C134.007 14.0227 132.195 12.0858 129.854 11.1817L123.816 8.85059C121.749 8.16645 119.525 9.34824 118.852 11.4594C118.174 13.5838 119.315 15.8663 121.4 16.5555L126.624 18.2836C126.927 18.384 127.165 18.6262 127.263 18.9343C127.362 19.2424 127.309 19.581 127.122 19.8435L123.894 24.3689C122.605 26.1761 122.999 28.7039 124.772 30.0174C125.477 30.5394 126.294 30.7897 127.103 30.7897C128.331 30.7897 129.542 30.212 130.319 29.1225L133.835 23.6574V23.6585Z" fill="#FBFFCA"/>
<path d="M149.84 11.4682C149.162 9.34385 146.922 8.18132 144.836 8.87154L139.612 10.6006C139.309 10.701 138.977 10.6473 138.719 10.4567C138.461 10.2662 138.309 9.9611 138.309 9.63677V4.04404C138.309 1.81019 136.532 0 134.338 0C132.145 0 130.367 1.81019 130.367 4.04404V7.74448C130.367 8.5766 130.866 9.32358 131.625 9.62967L140.109 13.0484C140.66 13.2703 141.086 13.7325 141.269 14.3072C141.452 14.8819 141.375 15.5103 141.056 16.0201L136.166 23.8629C135.729 24.5652 135.756 25.4683 136.236 26.1413L138.371 29.1333C139.148 30.2228 140.359 30.8006 141.587 30.8006C142.397 30.8006 143.214 30.5502 143.918 30.0282C145.692 28.7157 146.085 26.1869 144.796 24.3798L141.568 19.8543C141.38 19.5918 141.328 19.2543 141.426 18.9451C141.525 18.637 141.763 18.3948 142.065 18.2945L147.289 16.5664C149.375 15.8761 150.517 13.5947 149.839 11.4703L149.84 11.4682Z" fill="#FBFFCA"/>
</svg>
