<svg width="128" height="36" viewBox="0 0 128 36" fill="none" xmlns="http://www.w3.org/2000/svg">
<path d="M88.4276 33.6415H83.2512V12.3686H88.342V17.0675C89.0693 15.3588 91.0372 11.9842 95.7858 11.9842C96.3847 11.9842 96.8125 12.0269 97.1976 12.1123V17.4092C96.4275 17.3238 95.6575 17.2811 94.8874 17.2811C90.3955 17.2811 88.4276 19.4596 88.4276 24.671V33.6415Z" fill="black"/>
<path d="M70.5924 34.0895C64.3037 34.0895 60.1968 29.8606 60.1968 22.8123C60.1968 16.0204 64.6032 11.5351 70.5069 11.5351C77.3517 11.5351 81.1164 17.0456 80.4319 24.0938H65.416C65.5871 28.4082 67.94 29.9887 70.678 29.9887C73.6726 29.9887 75.0844 27.9383 75.8544 26.1442L80.5603 27.8956C79.1913 31.2275 76.2394 34.0895 70.5924 34.0895ZM65.5443 20.2493H75.2555C75.0844 17.131 73.202 15.4223 70.5069 15.4223C67.94 15.4223 65.9294 17.131 65.5443 20.2493Z" fill="black"/>
<path d="M32.7351 34.0468C27.9437 34.0468 23.8796 31.8255 22.9812 27.9383L27.7726 26.4005C28.0721 27.5966 29.0988 30.2023 32.949 30.2023C35.4303 30.2023 36.7565 29.1771 36.7565 27.7247C36.7565 26.5287 36.1148 25.5462 33.6335 25.0763L30.7672 24.521C26.6603 23.7094 23.8368 22.257 23.8368 18.1562C23.8368 14.1835 27.3876 11.5351 32.564 11.5351C37.8688 11.5351 40.5212 14.269 41.4195 16.6611L37.0132 18.5406C36.4142 16.9174 35.0025 15.2942 32.3501 15.2942C29.9544 15.2942 28.8849 16.4048 28.8849 17.6863C28.8849 18.9251 29.5266 19.5658 32.0934 20.0357L34.8741 20.5483C38.211 21.2318 42.1468 22.855 42.1468 27.2121C42.1468 31.3556 38.6816 34.0468 32.7351 34.0468Z" fill="black"/>
<path d="M7.10154 34.0895C3.12297 34.0895 0.299463 31.7401 0.299463 27.981C0.299463 22.8055 5.17505 20.7456 11.0447 19.8778C12.5373 19.6571 13.4111 19.3119 13.4111 18.0169C13.4111 16.7218 12.0005 15.465 9.79671 15.465C6.63096 15.465 5.30477 17.1737 4.74862 19.0532L0 17.8145C0.470584 14.6534 3.80745 11.5351 9.79671 11.5351C15.6576 11.5351 18.8661 14.269 18.8661 19.4804V28.0665C18.8661 29.0917 19.0373 29.348 20.1496 29.348H22.1175V33.4488H18.1389C15.4437 33.4488 14.5025 32.1673 14.2459 30.2877C12.9625 32.2954 10.6951 34.0895 7.10154 34.0895ZM8.81276 30.1596C11.294 30.1596 13.6897 28.4936 13.6897 24.6918V22.9832C9.32612 23.4531 5.60423 24.4356 5.60423 27.5112C5.60423 29.1344 6.67374 30.1596 8.81276 30.1596Z" fill="black"/>
<path d="M53.28 33.6447H59.6115V29.4158H55.9628C53.4215 29.4158 53.1089 28.8011 53.1089 26.5335V16.4299H58.7559V12.3718H54.8391C53.8835 12.3718 53.1089 11.5983 53.1089 10.6441V5.70801H47.8897V10.6441C47.8897 11.5983 47.115 12.3718 46.1595 12.3718L43.2694 12.3839V16.4299H47.8897V28.2197C47.8897 31.5943 49.8148 33.6447 53.28 33.6447Z" fill="black"/>
<path d="M113.454 19.6775C114.617 17.9044 114.913 15.699 114.256 13.6824C113.6 11.6658 112.063 10.0554 110.078 9.30368L104.957 7.36544C103.205 6.79661 101.319 7.77921 100.748 9.53459C100.173 11.3009 101.141 13.1987 102.909 13.7718L107.339 15.2086C107.596 15.292 107.797 15.4934 107.881 15.7496C107.964 16.0058 107.92 16.2873 107.761 16.5055L105.023 20.2682C103.93 21.7708 104.265 23.8725 105.768 24.9647C106.366 25.3987 107.059 25.6068 107.745 25.6068C108.786 25.6068 109.813 25.1265 110.472 24.2206L113.454 19.6767V19.6775Z" fill="#2F9D6C"/>
<path d="M127.036 9.53531C126.462 7.76898 124.562 6.80239 122.793 7.37628L118.363 8.81395C118.106 8.89738 117.825 8.85271 117.606 8.69428C117.387 8.53585 117.258 8.28219 117.258 8.01253V3.36243C117.258 1.50509 115.751 0 113.891 0C112.031 0 110.523 1.50509 110.523 3.36243V6.43918C110.523 7.13105 110.946 7.75213 111.59 8.00663L118.784 10.8491C119.252 11.0337 119.613 11.4179 119.768 11.8958C119.923 12.3736 119.858 12.8961 119.588 13.3199L115.441 19.8409C115.07 20.4249 115.093 21.1757 115.5 21.7353L117.311 24.223C117.97 25.1289 118.997 25.6092 120.038 25.6092C120.724 25.6092 121.417 25.4011 122.015 24.9671C123.519 23.8758 123.852 21.7732 122.759 20.2706L120.021 16.5079C119.863 16.2897 119.818 16.009 119.902 15.752C119.985 15.4958 120.187 15.2944 120.443 15.211L124.873 13.7742C126.642 13.2003 127.61 11.3033 127.036 9.537L127.036 9.53531Z" fill="#2F9D6C"/>
</svg>
