<svg width="128" height="36" viewBox="0 0 128 36" fill="none" xmlns="http://www.w3.org/2000/svg">
    <path d="M88.4276 34.6406H83.2512V13.3677H88.342V18.0665C89.0693 16.3578 91.0372 12.9832 95.7858 12.9832C96.3847 12.9832 96.8125 13.0259 97.1976 13.1114V18.4082C96.4275 18.3228 95.6575 18.2801 94.8874 18.2801C90.3955 18.2801 88.4276 20.4586 88.4276 25.6701V34.6406Z" fill="white"/>
    <path d="M70.5924 35.0885C64.3037 35.0885 60.1968 30.8596 60.1968 23.8113C60.1968 17.0194 64.6032 12.5341 70.5069 12.5341C77.3517 12.5341 81.1164 18.0446 80.4319 25.0928H65.416C65.5871 29.4072 67.94 30.9877 70.678 30.9877C73.6726 30.9877 75.0844 28.9373 75.8544 27.1432L80.5603 28.8946C79.1913 32.2265 76.2394 35.0885 70.5924 35.0885ZM65.5443 21.2483H75.2555C75.0844 18.13 73.202 16.4214 70.5069 16.4214C67.94 16.4214 65.9294 18.13 65.5443 21.2483Z" fill="white"/>
    <path d="M32.7351 35.0458C27.9437 35.0458 23.8796 32.8246 22.9812 28.9373L27.7726 27.3995C28.0721 28.5956 29.0988 31.2013 32.949 31.2013C35.4303 31.2013 36.7565 30.1761 36.7565 28.7238C36.7565 27.5277 36.1148 26.5452 33.6335 26.0753L30.7672 25.52C26.6603 24.7084 23.8368 23.256 23.8368 19.1552C23.8368 15.1826 27.3876 12.5341 32.564 12.5341C37.8688 12.5341 40.5212 15.268 41.4195 17.6601L37.0132 19.5397C36.4142 17.9164 35.0025 16.2932 32.3501 16.2932C29.9544 16.2932 28.8849 17.4038 28.8849 18.6853C28.8849 19.9241 29.5266 20.5649 32.0934 21.0348L34.8741 21.5474C38.211 22.2308 42.1468 23.8541 42.1468 28.2112C42.1468 32.3547 38.6816 35.0458 32.7351 35.0458Z" fill="white"/>
    <path d="M7.10154 35.0885C3.12297 35.0885 0.299463 32.7391 0.299463 28.9801C0.299463 23.8045 5.17505 21.7447 11.0447 20.8768C12.5373 20.6561 13.4111 20.311 13.4111 19.0159C13.4111 17.7208 12.0005 16.4641 9.79671 16.4641C6.63096 16.4641 5.30477 18.1727 4.74862 20.0523L0 18.8135C0.470584 15.6525 3.80745 12.5341 9.79671 12.5341C15.6576 12.5341 18.8661 15.268 18.8661 20.4794V29.0655C18.8661 30.0907 19.0373 30.347 20.1496 30.347H22.1175V34.4478H18.1389C15.4437 34.4478 14.5025 33.1663 14.2459 31.2868C12.9625 33.2944 10.6951 35.0885 7.10154 35.0885ZM8.81276 31.1586C11.294 31.1586 13.6897 29.4927 13.6897 25.6909V23.9822C9.32612 24.4521 5.60423 25.4346 5.60423 28.5102C5.60423 30.1334 6.67374 31.1586 8.81276 31.1586Z" fill="white"/>
    <path d="M53.28 34.6437H59.6115V30.4148H55.9628C53.4215 30.4148 53.1089 29.8001 53.1089 27.5325V17.4289H58.7559V13.3708H54.8391C53.8835 13.3708 53.1089 12.5973 53.1089 11.6432V6.70703H47.8897V11.6432C47.8897 12.5973 47.115 13.3708 46.1595 13.3708L43.2694 13.3829V17.4289H47.8897V29.2187C47.8897 32.5933 49.8148 34.6437 53.28 34.6437Z" fill="white"/>
    <path d="M113.454 20.6768C114.617 18.9037 114.913 16.6983 114.256 14.6817C113.6 12.6651 112.063 11.0547 110.078 10.303L104.957 8.36471C103.205 7.79588 101.319 8.77848 100.748 10.5339C100.173 12.3002 101.141 14.198 102.909 14.771L107.339 16.2078C107.596 16.2913 107.797 16.4927 107.881 16.7489C107.964 17.0051 107.92 17.2865 107.761 17.5048L105.023 21.2675C103.93 22.7701 104.265 24.8718 105.768 25.9639C106.366 26.3979 107.059 26.6061 107.745 26.6061C108.786 26.6061 109.813 26.1258 110.472 25.2198L113.454 20.6759V20.6768Z" fill="#FBFFCA"/>
    <path d="M127.036 10.5353C126.462 8.76898 124.562 7.80239 122.793 8.37628L118.363 9.81395C118.106 9.89738 117.825 9.85271 117.606 9.69428C117.387 9.53585 117.258 9.28219 117.258 9.01253V4.36243C117.258 2.50509 115.751 1 113.891 1C112.031 1 110.523 2.50509 110.523 4.36243V7.43918C110.523 8.13105 110.946 8.75213 111.59 9.00663L118.784 11.8491C119.252 12.0337 119.613 12.4179 119.768 12.8958C119.923 13.3736 119.858 13.8961 119.588 14.3199L115.441 20.8409C115.07 21.4249 115.093 22.1757 115.5 22.7353L117.311 25.223C117.97 26.1289 118.997 26.6092 120.038 26.6092C120.724 26.6092 121.417 26.4011 122.015 25.9671C123.519 24.8758 123.852 22.7732 122.759 21.2706L120.021 17.5079C119.863 17.2897 119.818 17.009 119.902 16.752C119.985 16.4958 120.187 16.2944 120.443 16.211L124.873 14.7742C126.642 14.2003 127.61 12.3033 127.036 10.537L127.036 10.5353Z" fill="#FBFFCA"/>
</svg>

