<svg width="32" height="32" viewBox="0 0 32 32" fill="none" xmlns="http://www.w3.org/2000/svg">
<path d="M15.6068 21.7479C16.6562 20.1491 16.9226 18.1604 16.3305 16.342C15.7384 14.5235 14.3526 13.0713 12.5626 12.3935L7.94547 10.6457C6.36481 10.1328 4.66467 11.0188 4.14945 12.6017C3.63119 14.1945 4.50409 15.9058 6.09845 16.4225L10.0931 17.7181C10.3244 17.7934 10.5063 17.975 10.5817 18.206C10.657 18.437 10.6167 18.6908 10.4736 18.8876L8.00483 22.2806C7.0193 23.6355 7.32066 25.5307 8.67682 26.5156C9.21563 26.9069 9.84043 27.0946 10.4591 27.0946C11.3983 27.0946 12.3237 26.6615 12.918 25.8446L15.6068 21.7472V21.7479Z" fill="white"/>
<path d="M27.8473 12.5983C27.3291 11.0056 25.616 10.134 24.0209 10.6515L20.0262 11.9479C19.7949 12.0231 19.5407 11.9828 19.3436 11.8399C19.1465 11.6971 19.03 11.4684 19.03 11.2252V7.03202C19.03 5.35719 17.6709 4 15.9935 4C14.3162 4 12.957 5.35719 12.957 7.03202V9.80644C12.957 10.4303 13.3383 10.9904 13.919 11.2199L20.406 13.783C20.8276 13.9494 21.1533 14.296 21.2934 14.7268C21.4334 15.1577 21.374 15.6288 21.1305 16.0111L17.3916 21.8912C17.0567 22.4178 17.078 23.0949 17.4448 23.5995L19.0772 25.8427C19.6716 26.6596 20.5978 27.0928 21.5369 27.0928C22.1556 27.0928 22.7804 26.9051 23.3192 26.5137C24.6754 25.5297 24.976 23.6337 23.9904 22.2788L21.5217 18.8858C21.3786 18.689 21.3383 18.4359 21.4136 18.2042C21.4889 17.9732 21.6708 17.7915 21.9022 17.7163L25.8968 16.4207C27.4919 15.9032 28.3648 14.1926 27.8466 12.5999L27.8473 12.5983Z" fill="white"/>
</svg>
