<svg width="32" height="32" viewBox="0 0 32 32" fill="none" xmlns="http://www.w3.org/2000/svg">
<path fill-rule="evenodd" clip-rule="evenodd" d="M20.1694 12.3271C20.8138 12.3271 21.3358 11.8051 21.3358 11.1606V7.66112C21.3358 6.37272 20.2913 5.32812 19.0029 5.32812H5.00487C3.71647 5.32812 2.67188 6.37214 2.67188 7.66112V15.8266C2.67188 17.115 3.71647 18.1596 5.00487 18.1596H7.33787C7.98236 18.1596 8.50437 18.6816 8.50437 19.3261V21.4176C8.50437 21.6533 8.64668 21.8662 8.86423 21.9566C9.08178 22.047 9.33316 21.9968 9.49997 21.83L12.8286 18.5014C13.0473 18.2827 13.1704 17.9858 13.1704 17.6767V16.9931C13.1704 14.4163 15.2596 12.3271 17.8364 12.3271H20.1694Z" fill="white"/>
<path fill-rule="evenodd" clip-rule="evenodd" d="M28.3393 16.9814C28.3393 15.693 27.2947 14.6484 26.0063 14.6484H17.8408C16.5524 14.6484 15.5078 15.693 15.5078 16.9814V20.4809C15.5078 21.7693 16.5524 22.8139 17.8408 22.8139H20.8568C21.1659 22.8139 21.4628 22.937 21.6815 23.1557L25.0101 26.4843C25.1769 26.6511 25.4277 26.7013 25.6459 26.6109C25.864 26.5205 26.0057 26.3082 26.0057 26.072V23.781C26.0057 23.2864 26.3172 22.846 26.7838 22.6809C27.6896 22.3607 28.3387 21.4964 28.3387 20.4809V16.9814H28.3393Z" fill="white"/>
</svg>
