<svg width="32" height="32" viewBox="0 0 32 32" fill="none" xmlns="http://www.w3.org/2000/svg">
<path d="M24.1589 6.65469V5.41112C24.1589 4.71843 23.5967 4.15625 22.904 4.15625C22.2114 4.15625 21.6492 4.71843 21.6492 5.41112V6.65469H10.3554V5.41112C10.3554 4.71843 9.79385 4.15625 9.10053 4.15625C8.40722 4.15625 7.84567 4.7178 7.84567 5.41112V6.65469H6.5908C5.89749 6.65469 5.33594 7.21624 5.33594 7.90955V26.7325C5.33594 27.4258 5.89812 27.9874 6.5908 27.9874H25.4138C26.1071 27.9874 26.6686 27.4258 26.6686 26.7325V7.90453L26.6693 7.90955C26.6693 7.21624 26.1077 6.65469 25.4144 6.65469H24.1589ZM9.72797 12.929C8.68768 12.929 7.84567 12.0864 7.84567 11.0467C7.84567 10.0071 8.68831 9.16442 9.72797 9.16442C10.7676 9.16442 11.6103 10.0077 11.6103 11.0467C11.6103 12.0857 10.7676 12.929 9.72797 12.929ZM16.0023 12.929C14.962 12.929 14.12 12.0864 14.12 11.0467C14.12 10.0071 14.9626 9.16442 16.0023 9.16442C17.0419 9.16442 17.8846 10.0077 17.8846 11.0467C17.8846 12.0857 17.0419 12.929 16.0023 12.929ZM22.2766 12.929C21.2363 12.929 20.3943 12.0864 20.3943 11.0467C20.3943 10.0071 21.237 9.16442 22.2766 9.16442C23.3163 9.16442 24.1589 10.0077 24.1589 11.0467C24.1589 12.0857 23.3163 12.929 22.2766 12.929ZM9.72797 19.2033C8.68768 19.2033 7.84567 18.3607 7.84567 17.321C7.84567 16.2814 8.68831 15.4387 9.72797 15.4387C10.7676 15.4387 11.6103 16.282 11.6103 17.321C11.6103 18.3601 10.7676 19.2033 9.72797 19.2033ZM16.0023 19.2033C14.962 19.2033 14.12 18.3607 14.12 17.321C14.12 16.2814 14.9626 15.4387 16.0023 15.4387C17.0419 15.4387 17.8846 16.282 17.8846 17.321C17.8846 18.3601 17.0419 19.2033 16.0023 19.2033ZM22.2766 19.2033C21.2363 19.2033 20.3943 18.3607 20.3943 17.321C20.3943 16.2814 21.237 15.4387 22.2766 15.4387C23.3163 15.4387 24.1589 16.282 24.1589 17.321C24.1589 18.3601 23.3163 19.2033 22.2766 19.2033ZM9.72797 25.4777C8.68768 25.4777 7.84567 24.635 7.84567 23.5954C7.84567 22.5557 8.68831 21.7131 9.72797 21.7131C10.7676 21.7131 11.6103 22.5563 11.6103 23.5954C11.6103 24.6344 10.7676 25.4777 9.72797 25.4777ZM16.0023 25.4777C14.962 25.4777 14.12 24.635 14.12 23.5954C14.12 22.5557 14.9626 21.7131 16.0023 21.7131C17.0419 21.7131 17.8846 22.5563 17.8846 23.5954C17.8846 24.6344 17.0419 25.4777 16.0023 25.4777ZM22.2766 25.4777C21.2363 25.4777 20.3943 24.635 20.3943 23.5954C20.3943 22.5557 21.237 21.7131 22.2766 21.7131C23.3163 21.7131 24.1589 22.5563 24.1589 23.5954C24.1589 24.6344 23.3163 25.4777 22.2766 25.4777Z" fill="white"/>
</svg>
