<svg width="32" height="32" viewBox="0 0 32 32" fill="none" xmlns="http://www.w3.org/2000/svg">
<path d="M16 28C16.9093 28 17.7814 27.6388 18.4244 26.9958C19.0673 26.3528 19.4286 25.4807 19.4286 24.5714H12.5714C12.5714 25.4807 12.9327 26.3528 13.5756 26.9958C14.2186 27.6388 15.0907 28 16 28ZM22.8571 17.7143V13.7234C22.8571 10.504 20.7331 7.612 17.7143 6.81143V5.71428C17.7143 4.77143 16.9429 4 16 4C15.0571 4 14.2857 4.77143 14.2857 5.71428V6.82343C11.3354 7.58971 9.14287 10.2383 9.14287 13.4286V17.7143C9.14287 18.6236 8.78164 19.4957 8.13866 20.1386C7.49568 20.7816 6.62361 21.1428 5.7143 21.1428V22.8571H26.2857V21.1428C25.3764 21.1428 24.5043 20.7816 23.8613 20.1386C23.2184 19.4957 22.8571 18.6236 22.8571 17.7143ZM24.4943 5.79657L23.2754 7.00343C24.2315 7.9596 24.9896 9.09502 25.5061 10.3446C26.0227 11.5943 26.2876 12.9335 26.2857 14.2857H28C28.002 12.7098 27.6934 11.1489 27.0918 9.69231C26.4903 8.2357 25.6076 6.9119 24.4943 5.79657ZM8.72287 7.00343L7.50572 5.79657C6.39206 6.91168 5.50919 8.23543 4.90764 9.69209C4.3061 11.1487 3.99767 12.7097 4.00001 14.2857H5.7143C5.71256 12.9337 5.97738 11.5946 6.49362 10.3451C7.00986 9.0955 7.76739 7.95997 8.72287 7.00343Z" fill="white"/>
</svg>
