<svg width="32" height="32" viewBox="0 0 32 32" fill="none" xmlns="http://www.w3.org/2000/svg">
<g clip-path="url(#clip0_1802_31557)">
<path fill-rule="evenodd" clip-rule="evenodd" d="M7 4C5.34315 4 4 5.34315 4 7V25C4 26.6569 5.34315 28 7 28H25C26.6569 28 28 26.6569 28 25V7C28 5.34315 26.6569 4 25 4H7ZM21.8824 13.5721C22.2804 13.0822 22.2058 12.3624 21.7159 11.9645C21.2259 11.5665 20.5062 11.6411 20.1082 12.131L15.1073 18.2879L12.0034 15.1841C11.5571 14.7378 10.8335 14.7378 10.3872 15.1841C9.94088 15.6304 9.94088 16.354 10.3872 16.8003L14.3872 20.8003C14.616 21.0291 14.9311 21.1502 15.2543 21.1335C15.5774 21.1168 15.8784 20.9639 16.0824 20.7127L21.8824 13.5721Z" fill="white"/>
</g>
<defs>
<clipPath id="clip0_1802_31557">
<rect x="4" y="4" width="24" height="24" rx="3" fill="white"/>
</clipPath>
</defs>
</svg>
