<svg width="58" height="58" viewBox="0 0 58 58" fill="none" xmlns="http://www.w3.org/2000/svg">
    <path d="M28.0776 42.7638C30.5259 39.0907 31.1473 34.522 29.766 30.3443C28.3847 26.1667 25.1517 22.8305 20.9759 21.2733L10.2044 17.258C6.5169 16.0796 2.55062 18.1151 1.34866 21.7516C0.1396 25.4108 2.17601 29.3423 5.89551 30.5294L15.2147 33.506C15.7544 33.6788 16.1787 34.096 16.3545 34.6268C16.5303 35.1575 16.4362 35.7406 16.1024 36.1927L10.3429 43.9876C8.04376 47.1004 8.74683 51.4544 11.9106 53.7169C13.1676 54.616 14.6252 55.0472 16.0687 55.0472C18.2595 55.0472 20.4184 54.0521 21.805 52.1754L28.0776 42.7621V42.7638Z" fill="#2F9D6C"/>
    <path d="M56.6519 21.7535C55.4428 18.0944 51.4464 16.092 47.7251 17.2808L38.4059 20.2591C37.8662 20.432 37.2732 20.3395 36.8134 20.0112C36.3535 19.683 36.0819 19.1576 36.0819 18.5989V8.96567C36.0819 5.11797 32.911 2 28.998 2C25.085 2 21.9141 5.11797 21.9141 8.96567V15.3395C21.9141 16.7728 22.8035 18.0595 24.1582 18.5867L39.2919 24.4752C40.2754 24.8575 41.0353 25.6536 41.362 26.6435C41.6887 27.6333 41.5502 28.7157 40.9821 29.5938L32.2594 43.1027C31.4782 44.3125 31.528 45.868 32.3837 47.0272L36.192 52.1808C37.5786 54.0575 39.7393 55.0526 41.9301 55.0526C43.3735 55.0526 44.8312 54.6214 46.0882 53.7223C49.252 51.4615 49.9532 47.1058 47.6541 43.9931L41.8946 36.1981C41.5608 35.746 41.4667 35.1646 41.6425 34.6322C41.8183 34.1015 42.2426 33.6842 42.7823 33.5114L52.1015 30.5348C55.8228 29.3459 57.8592 25.4162 56.6501 21.757L56.6519 21.7535Z" fill="#2F9D6C"/>
</svg>
