<svg width="68" height="69" viewBox="0 0 68 69" fill="none" xmlns="http://www.w3.org/2000/svg">
    <rect y="0.648438" width="67.5" height="67.5" rx="33.75" fill="#38A574"/>
    <path d="M33.2978 43.7617C34.8894 41.3812 35.2933 38.4204 34.3954 35.713C33.4975 33.0055 31.3957 30.8435 28.6812 29.8343L21.6789 27.2321C19.2817 26.4684 16.7033 27.7876 15.922 30.1443C15.136 32.5157 16.4598 35.0635 18.8778 35.8329L24.9359 37.7619C25.2868 37.8739 25.5626 38.1443 25.6769 38.4883C25.7912 38.8322 25.73 39.2101 25.513 39.5031L21.7689 44.5548C20.2743 46.572 20.7313 49.3937 22.788 50.86C23.6052 51.4426 24.5527 51.7221 25.4911 51.7221C26.9153 51.7221 28.3188 51.0772 29.2202 49.861L33.2978 43.7605V43.7617Z" fill="#F0EFE9"/>
    <path d="M51.8713 30.1454C51.0853 27.774 48.4873 26.4763 46.0682 27.2468L40.01 29.1769C39.6592 29.2889 39.2737 29.229 38.9747 29.0163C38.6758 28.8036 38.4992 28.463 38.4992 28.101V21.858C38.4992 19.3644 36.4379 17.3438 33.8941 17.3438C31.3504 17.3438 29.2891 19.3644 29.2891 21.858V25.9887C29.2891 26.9176 29.8673 27.7514 30.7479 28.0931L40.5859 31.9092C41.2253 32.157 41.7193 32.6729 41.9317 33.3144C42.1441 33.9559 42.054 34.6574 41.6847 35.2265L36.0143 43.9812C35.5065 44.7652 35.5388 45.7733 36.0951 46.5245L38.5708 49.8644C39.4722 51.0806 40.8768 51.7255 42.301 51.7255C43.2394 51.7255 44.1869 51.4461 45.0041 50.8634C47.0608 49.3982 47.5167 46.5754 46.022 44.5582L42.2779 39.5065C42.061 39.2135 41.9998 38.8367 42.114 38.4917C42.2283 38.1477 42.5042 37.8773 42.855 37.7653L48.9132 35.8363C51.3323 35.0658 52.6561 32.5191 51.8701 30.1477L51.8713 30.1454Z" fill="#F0EFE9"/>
</svg>
