<svg width="66" height="64" viewBox="0 0 66 64" fill="none" xmlns="http://www.w3.org/2000/svg">
    <path d="M31.5087 48.4957C34.3534 44.1409 35.0755 38.7243 33.4705 33.7713C31.8656 28.8183 28.1091 24.863 23.2572 23.0167L10.7417 18.2562C6.45705 16.8591 1.84856 19.2725 0.451989 23.5839C-0.952836 27.9221 1.41329 32.5833 5.73504 33.9907L16.5631 37.5197C17.1902 37.7246 17.6833 38.2193 17.8875 38.8485C18.0917 39.4777 17.9824 40.169 17.5946 40.7051L10.9026 49.9466C8.23113 53.6371 9.04803 58.7991 12.7241 61.4815C14.1846 62.5475 15.8782 63.0587 17.5554 63.0587C20.101 63.0587 22.6094 61.8789 24.2206 59.6539L31.5087 48.4937V48.4957Z" fill="#FBFFCA"/>
    <path d="M64.7296 23.5602C63.3248 19.2219 58.6812 16.8479 54.3574 18.2574L43.5293 21.7885C42.9022 21.9934 42.2132 21.8837 41.6789 21.4946C41.1446 21.1054 40.829 20.4824 40.829 19.8201V8.39905C40.829 3.83725 37.1447 0.140625 32.5981 0.140625C28.0515 0.140625 24.3672 3.83725 24.3672 8.39905V15.9558C24.3672 17.6551 25.4007 19.1805 26.9747 19.8056L44.5587 26.787C45.7015 27.2403 46.5845 28.1841 46.964 29.3576C47.3436 30.5312 47.1827 31.8145 46.5226 32.8556L36.3876 48.8715C35.4799 50.3059 35.5377 52.1501 36.532 53.5244L40.9569 59.6344C42.568 61.8594 45.0785 63.0392 47.6241 63.0392C49.3013 63.0392 50.9949 62.528 52.4554 61.462C56.1315 58.7816 56.9463 53.6175 54.2749 49.9271L47.5829 40.6856C47.1951 40.1495 47.0857 39.4602 47.29 38.829C47.4942 38.1997 47.9872 37.7051 48.6143 37.5002L59.4424 33.9712C63.7662 32.5617 66.1344 27.8985 64.7296 23.5602Z" fill="#FBFFCA"/>
</svg>
