<svg width="61" height="60" viewBox="0 0 61 60" fill="none" xmlns="http://www.w3.org/2000/svg">
    <rect x="0.5" width="60" height="60" rx="30" fill="#F0EFE9"/>
    <path d="M30.0062 37.8259C31.4082 35.6796 31.7641 33.01 30.9731 30.5689C30.1821 28.1278 28.3307 26.1783 25.9394 25.2684L19.771 22.9222C17.6593 22.2336 15.388 23.423 14.6997 25.5479C14.0073 27.6861 15.1734 29.9833 17.3035 30.677L22.6402 32.4163C22.9492 32.5173 23.1922 32.7611 23.2929 33.0712C23.3935 33.3813 23.3396 33.722 23.1485 33.9862L19.8503 38.541C18.5337 40.3598 18.9363 42.904 20.7481 44.2261C21.4679 44.7514 22.3026 45.0034 23.1292 45.0034C24.3838 45.0034 25.6201 44.4219 26.4142 43.3253L30.0062 37.8249V37.8259Z" fill="#38A574"/>
    <path d="M46.3695 25.5425C45.6771 23.4044 43.3885 22.2343 41.2575 22.929L35.9208 24.6693C35.6117 24.7703 35.2721 24.7162 35.0088 24.5244C34.7454 24.3327 34.5899 24.0256 34.5899 23.6992V18.0702C34.5899 15.8219 32.774 14 30.5332 14C28.2924 14 26.4766 15.8219 26.4766 18.0702V21.7946C26.4766 22.6321 26.9859 23.384 27.7617 23.692L36.4281 27.1328C36.9914 27.3562 37.4265 27.8214 37.6136 28.3998C37.8006 28.9782 37.7213 29.6107 37.396 30.1238L32.4009 38.0174C31.9536 38.7243 31.982 39.6332 32.4721 40.3106L34.6529 43.3219C35.447 44.4185 36.6843 45 37.9389 45C38.7655 45 39.6002 44.748 40.32 44.2227C42.1318 42.9016 42.5334 40.3565 41.2168 38.5376L37.9186 33.9829C37.7274 33.7187 37.6736 33.379 37.7742 33.0678C37.8749 32.7577 38.1179 32.5139 38.4269 32.4129L43.7636 30.6736C45.8947 29.9789 47.0618 27.6806 46.3695 25.5425Z" fill="#38A574"/>
</svg>
