<svg width="36" height="37" viewBox="0 0 36 37" fill="none" xmlns="http://www.w3.org/2000/svg">
    <rect y="0.351562" width="36" height="36" rx="18" fill="black" fill-opacity="0.06"/>
    <path d="M19.2711 18.3677L24.9411 12.7067C25.1106 12.5373 25.2058 12.3074 25.2058 12.0677C25.2058 11.8281 25.1106 11.5982 24.9411 11.4287C24.7716 11.2593 24.5418 11.1641 24.3021 11.1641C24.0624 11.1641 23.8326 11.2593 23.6631 11.4287L18.0021 17.0987L12.3411 11.4287C12.1716 11.2593 11.9418 11.1641 11.7021 11.1641C11.4624 11.1641 11.2326 11.2593 11.0631 11.4287C10.8936 11.5982 10.7984 11.8281 10.7984 12.0677C10.7984 12.3074 10.8936 12.5373 11.0631 12.7067L16.7331 18.3677L11.0631 24.0287C10.9787 24.1124 10.9118 24.212 10.8661 24.3216C10.8204 24.4313 10.7969 24.5489 10.7969 24.6677C10.7969 24.7866 10.8204 24.9042 10.8661 25.0139C10.9118 25.1235 10.9787 25.2231 11.0631 25.3067C11.1468 25.3911 11.2463 25.4581 11.356 25.5037C11.4656 25.5494 11.5833 25.573 11.7021 25.573C11.8209 25.573 11.9385 25.5494 12.0482 25.5037C12.1579 25.4581 12.2574 25.3911 12.3411 25.3067L18.0021 19.6367L23.6631 25.3067C23.7468 25.3911 23.8463 25.4581 23.956 25.5037C24.0656 25.5494 24.1833 25.573 24.3021 25.573C24.4209 25.573 24.5385 25.5494 24.6482 25.5037C24.7579 25.4581 24.8574 25.3911 24.9411 25.3067C25.0255 25.2231 25.0924 25.1235 25.1381 25.0139C25.1838 24.9042 25.2073 24.7866 25.2073 24.6677C25.2073 24.5489 25.1838 24.4313 25.1381 24.3216C25.0924 24.212 25.0255 24.1124 24.9411 24.0287L19.2711 18.3677Z" fill="black"/>
</svg>
