<svg width="492" height="588" viewBox="0 0 492 588" fill="none" xmlns="http://www.w3.org/2000/svg">
    <g clip-path="url(#clip0_1140_31878)">
        <rect x="5.89844" y="34.2578" width="484.096" height="484.096" rx="242.048" fill="#CBE0D2"/>
        <rect x="79.4844" y="107.836" width="338.867" height="338.867" rx="169.434" fill="#AED4BF"/>
        <rect x="152.098" y="180.445" width="193.639" height="193.639" rx="96.8193" fill="#96CBB0"/>
        <rect x="209.215" y="237.602" width="79.3918" height="79.3918" rx="39.6959" fill="#38A574" stroke="#B3DAC7" stroke-width="1.93639"/>
        <path d="M248.817 287.715C250.568 285.034 251.013 281.698 250.025 278.649C249.037 275.599 246.724 273.164 243.736 272.027L236.03 269.096C233.392 268.236 230.555 269.722 229.695 272.376C228.83 275.047 230.287 277.917 232.948 278.784L239.615 280.957C240.001 281.083 240.304 281.387 240.43 281.775C240.556 282.162 240.489 282.588 240.25 282.918L236.129 288.608C234.484 290.88 234.987 294.059 237.251 295.71C238.15 296.367 239.193 296.682 240.226 296.682C241.793 296.682 243.337 295.955 244.329 294.585L248.817 287.714V287.715Z" fill="#F6FF8E"/>
        <path d="M269.25 272.35C268.385 269.678 265.526 268.217 262.864 269.085L256.197 271.259C255.811 271.385 255.387 271.317 255.058 271.078C254.729 270.838 254.534 270.454 254.534 270.047V263.015C254.534 260.206 252.266 257.93 249.466 257.93C246.667 257.93 244.398 260.206 244.398 263.015V267.667C244.398 268.714 245.035 269.653 246.004 270.038L256.831 274.336C257.534 274.615 258.078 275.197 258.312 275.919C258.545 276.642 258.446 277.432 258.04 278.073L251.8 287.934C251.241 288.817 251.276 289.953 251.889 290.799L254.613 294.561C255.605 295.931 257.151 296.657 258.718 296.657C259.751 296.657 260.794 296.343 261.693 295.686C263.956 294.036 264.458 290.856 262.813 288.584L258.693 282.894C258.454 282.564 258.387 282.139 258.512 281.751C258.638 281.363 258.942 281.059 259.328 280.933L265.995 278.76C268.657 277.892 270.114 275.023 269.249 272.352L269.25 272.35Z" fill="#F6FF8E"/>
    </g>
    <circle opacity="0.2" cx="179.74" cy="324.169" r="6.89596" transform="rotate(152.066 179.74 324.169)" fill="white"/>
    <circle opacity="0.6" cx="150.447" cy="339.702" r="6.89596" transform="rotate(152.066 150.447 339.702)" fill="white"/>
    <circle cx="121.154" cy="355.234" r="6.89596" transform="rotate(152.066 121.154 355.234)" fill="white"/>
    <circle opacity="0.2" cx="247.766" cy="195.9" r="6.89596" transform="rotate(-90.2 247.766 195.9)" fill="white"/>
    <circle opacity="0.6" cx="247.649" cy="162.745" r="6.89596" transform="rotate(-90.2 247.649 162.745)" fill="white"/>
    <circle cx="247.536" cy="129.589" r="6.89596" transform="rotate(-90.2 247.536 129.589)" fill="white"/>
    <circle opacity="0.2" cx="313.486" cy="321.936" r="6.89596" transform="rotate(33.1792 313.486 321.936)" fill="white"/>
    <circle opacity="0.6" cx="341.236" cy="340.081" r="6.89596" transform="rotate(33.1792 341.236 340.081)" fill="white"/>
    <circle cx="368.986" cy="358.226" r="6.89596" transform="rotate(33.1792 368.986 358.226)" fill="white"/>
    <g filter="url(#filter0_b_1140_31878)">
        <rect x="46.4922" y="421.594" width="275.838" height="164.893" rx="9.75703" fill="white"/>
        <path d="M67.793 444.116C67.793 441.917 69.5754 440.135 71.7741 440.135H83.7174C85.9161 440.135 87.6985 441.917 87.6985 444.116V456.059C87.6985 458.258 85.9161 460.04 83.7174 460.04H71.7741C69.5754 460.04 67.793 458.258 67.793 456.059V444.116Z" fill="#6B6B6B"/>
        <path d="M82.1944 446.989L77.1685 453.571L73.2311 449.376" stroke="white" stroke-width="1.39339" stroke-linecap="round" stroke-linejoin="round"/>
        <path d="M101.851 456.144V454.859H105.455C106.333 454.859 106.999 454.684 107.451 454.334C107.904 453.984 108.13 453.475 108.13 452.807V452.79C108.13 452.343 108.025 451.969 107.815 451.667C107.605 451.365 107.29 451.139 106.869 450.988C106.455 450.837 105.937 450.762 105.318 450.762H101.851V449.509H104.906C105.789 449.509 106.452 449.353 106.894 449.041C107.341 448.728 107.564 448.265 107.564 447.651V447.635C107.564 447.042 107.362 446.584 106.958 446.261C106.56 445.932 105.999 445.768 105.277 445.768H101.851V444.483H105.584C106.301 444.483 106.915 444.601 107.427 444.838C107.944 445.075 108.34 445.412 108.615 445.849C108.895 446.28 109.035 446.791 109.035 447.384V447.4C109.035 447.804 108.944 448.184 108.76 448.54C108.583 448.895 108.343 449.194 108.041 449.437C107.739 449.679 107.4 449.835 107.023 449.905V450.035C107.556 450.099 108.017 450.258 108.405 450.511C108.793 450.765 109.092 451.093 109.302 451.497C109.517 451.896 109.625 452.351 109.625 452.863V452.879C109.625 453.558 109.466 454.143 109.148 454.633C108.836 455.118 108.386 455.492 107.799 455.756C107.212 456.015 106.503 456.144 105.673 456.144H101.851ZM101.124 456.144V444.483H102.578V456.144H101.124ZM114.741 456.298C113.917 456.298 113.203 456.117 112.6 455.756C112.002 455.39 111.538 454.87 111.21 454.196C110.886 453.523 110.725 452.723 110.725 451.796V451.78C110.725 450.848 110.886 450.045 111.21 449.372C111.538 448.699 112.002 448.181 112.6 447.82C113.203 447.459 113.917 447.279 114.741 447.279C115.571 447.279 116.285 447.459 116.883 447.82C117.481 448.181 117.941 448.699 118.265 449.372C118.593 450.045 118.757 450.848 118.757 451.78V451.796C118.757 452.723 118.593 453.523 118.265 454.196C117.941 454.87 117.481 455.39 116.883 455.756C116.285 456.117 115.571 456.298 114.741 456.298ZM114.741 455.053C115.291 455.053 115.757 454.924 116.139 454.665C116.522 454.407 116.813 454.035 117.012 453.55C117.217 453.065 117.319 452.481 117.319 451.796V451.78C117.319 451.091 117.217 450.503 117.012 450.018C116.813 449.534 116.522 449.165 116.139 448.911C115.757 448.653 115.291 448.523 114.741 448.523C114.192 448.523 113.726 448.653 113.343 448.911C112.961 449.165 112.667 449.534 112.462 450.018C112.263 450.503 112.163 451.091 112.163 451.78V451.796C112.163 452.481 112.263 453.065 112.462 453.55C112.667 454.035 112.961 454.407 113.343 454.665C113.726 454.924 114.192 455.053 114.741 455.053ZM123.857 456.298C123.033 456.298 122.319 456.117 121.716 455.756C121.118 455.39 120.655 454.87 120.326 454.196C120.003 453.523 119.841 452.723 119.841 451.796V451.78C119.841 450.848 120.003 450.045 120.326 449.372C120.655 448.699 121.118 448.181 121.716 447.82C122.319 447.459 123.033 447.279 123.857 447.279C124.687 447.279 125.401 447.459 125.999 447.82C126.597 448.181 127.058 448.699 127.381 449.372C127.709 450.045 127.874 450.848 127.874 451.78V451.796C127.874 452.723 127.709 453.523 127.381 454.196C127.058 454.87 126.597 455.39 125.999 455.756C125.401 456.117 124.687 456.298 123.857 456.298ZM123.857 455.053C124.407 455.053 124.873 454.924 125.255 454.665C125.638 454.407 125.929 454.035 126.128 453.55C126.333 453.065 126.435 452.481 126.435 451.796V451.78C126.435 451.091 126.333 450.503 126.128 450.018C125.929 449.534 125.638 449.165 125.255 448.911C124.873 448.653 124.407 448.523 123.857 448.523C123.308 448.523 122.842 448.653 122.459 448.911C122.077 449.165 121.783 449.534 121.578 450.018C121.379 450.503 121.279 451.091 121.279 451.78V451.796C121.279 452.481 121.379 453.065 121.578 453.55C121.783 454.035 122.077 454.407 122.459 454.665C122.842 454.924 123.308 455.053 123.857 455.053ZM129.474 456.144V443.974H130.881V456.144H129.474ZM134.962 456.144L131.559 451.877L132.594 450.98L136.731 456.144H134.962ZM130.703 453.009L130.638 451.239H131.01L134.776 447.433H136.481L132.343 451.425L132.004 451.756L130.703 453.009ZM144.103 456.298C143.553 456.298 143.058 456.193 142.616 455.982C142.179 455.772 141.832 455.473 141.573 455.085C141.32 454.698 141.194 454.24 141.194 453.712V453.695C141.194 453.178 141.317 452.736 141.565 452.37C141.813 451.998 142.174 451.707 142.648 451.497C143.122 451.287 143.696 451.163 144.369 451.126L147.57 450.932V452.055L144.539 452.249C143.876 452.287 143.392 452.424 143.085 452.661C142.783 452.898 142.632 453.232 142.632 453.663V453.679C142.632 454.121 142.799 454.466 143.133 454.714C143.467 454.956 143.887 455.077 144.394 455.077C144.873 455.077 145.299 454.983 145.67 454.794C146.042 454.601 146.333 454.339 146.543 454.011C146.759 453.682 146.867 453.31 146.867 452.895V450.18C146.867 449.641 146.702 449.232 146.374 448.952C146.05 448.666 145.563 448.523 144.911 448.523C144.388 448.523 143.96 448.618 143.626 448.806C143.292 448.989 143.068 449.251 142.955 449.59L142.947 449.614H141.541L141.549 449.566C141.624 449.108 141.813 448.709 142.115 448.37C142.422 448.025 142.818 447.758 143.303 447.57C143.788 447.376 144.34 447.279 144.959 447.279C145.67 447.279 146.271 447.395 146.761 447.626C147.257 447.858 147.632 448.192 147.885 448.629C148.143 449.06 148.273 449.577 148.273 450.18V456.144H146.867V454.859H146.737C146.554 455.166 146.33 455.428 146.066 455.643C145.808 455.859 145.514 456.023 145.186 456.136C144.857 456.244 144.496 456.298 144.103 456.298ZM157.268 456.209C156.374 456.209 155.725 456.028 155.321 455.667C154.922 455.306 154.723 454.711 154.723 453.881V448.596H153.349V447.433H154.723V445.178H156.177V447.433H158.085V448.596H156.177V453.526C156.177 454.038 156.274 454.407 156.468 454.633C156.662 454.854 156.985 454.964 157.438 454.964C157.562 454.964 157.667 454.961 157.753 454.956C157.845 454.951 157.955 454.943 158.085 454.932V456.128C157.95 456.149 157.815 456.168 157.68 456.184C157.546 456.201 157.408 456.209 157.268 456.209ZM161.916 456.298C161.366 456.298 160.87 456.193 160.429 455.982C159.992 455.772 159.645 455.473 159.386 455.085C159.133 454.698 159.006 454.24 159.006 453.712V453.695C159.006 453.178 159.13 452.736 159.378 452.37C159.626 451.998 159.987 451.707 160.461 451.497C160.935 451.287 161.509 451.163 162.182 451.126L165.382 450.932V452.055L162.352 452.249C161.689 452.287 161.204 452.424 160.897 452.661C160.596 452.898 160.445 453.232 160.445 453.663V453.679C160.445 454.121 160.612 454.466 160.946 454.714C161.28 454.956 161.7 455.077 162.207 455.077C162.686 455.077 163.112 454.983 163.483 454.794C163.855 454.601 164.146 454.339 164.356 454.011C164.572 453.682 164.679 453.31 164.679 452.895V450.18C164.679 449.641 164.515 449.232 164.186 448.952C163.863 448.666 163.376 448.523 162.724 448.523C162.201 448.523 161.773 448.618 161.439 448.806C161.105 448.989 160.881 449.251 160.768 449.59L160.76 449.614H159.354L159.362 449.566C159.437 449.108 159.626 448.709 159.928 448.37C160.235 448.025 160.631 447.758 161.116 447.57C161.6 447.376 162.153 447.279 162.772 447.279C163.483 447.279 164.084 447.395 164.574 447.626C165.07 447.858 165.444 448.192 165.698 448.629C165.956 449.06 166.086 449.577 166.086 450.18V456.144H164.679V454.859H164.55C164.367 455.166 164.143 455.428 163.879 455.643C163.621 455.859 163.327 456.023 162.999 456.136C162.67 456.244 162.309 456.298 161.916 456.298ZM167.298 456.144L170.28 451.788L167.266 447.433H168.923L170.991 450.673H171.121L173.165 447.433H174.741L171.783 451.732L174.782 456.144H173.133L171.072 452.855H170.943L168.874 456.144H167.298ZM176.043 456.144V447.433H177.449V456.144H176.043ZM176.754 445.752C176.49 445.752 176.261 445.657 176.067 445.469C175.879 445.275 175.784 445.046 175.784 444.782C175.784 444.512 175.879 444.284 176.067 444.095C176.261 443.906 176.49 443.812 176.754 443.812C177.023 443.812 177.252 443.906 177.441 444.095C177.629 444.284 177.724 444.512 177.724 444.782C177.724 445.046 177.629 445.275 177.441 445.469C177.252 445.657 177.023 445.752 176.754 445.752Z" fill="#434343"/>
        <path d="M238.18 453.114C238.18 444.846 244.882 438.144 253.15 438.144H288.051C296.319 438.144 303.021 444.846 303.021 453.114C303.021 461.382 296.319 468.085 288.051 468.085H253.15C244.882 468.085 238.18 461.382 238.18 453.114Z" fill="#F3F2ED"/>
        <path d="M255.947 458.114V457.043H258.95C259.682 457.043 260.237 456.898 260.614 456.606C260.991 456.314 261.179 455.89 261.179 455.333V455.32C261.179 454.947 261.092 454.635 260.917 454.383C260.742 454.132 260.479 453.943 260.129 453.818C259.783 453.692 259.352 453.629 258.836 453.629H255.947V452.585H258.492C259.229 452.585 259.781 452.455 260.149 452.195C260.522 451.934 260.708 451.548 260.708 451.036V451.023C260.708 450.529 260.54 450.148 260.203 449.878C259.871 449.604 259.404 449.467 258.802 449.467H255.947V448.397H259.058C259.655 448.397 260.167 448.495 260.593 448.693C261.024 448.89 261.354 449.171 261.583 449.535C261.817 449.894 261.934 450.32 261.934 450.814V450.828C261.934 451.164 261.857 451.481 261.705 451.777C261.556 452.074 261.357 452.323 261.105 452.525C260.854 452.727 260.571 452.857 260.257 452.915V453.023C260.701 453.077 261.085 453.209 261.408 453.42C261.732 453.631 261.981 453.905 262.156 454.242C262.335 454.574 262.425 454.954 262.425 455.38V455.394C262.425 455.959 262.293 456.446 262.028 456.855C261.767 457.259 261.393 457.571 260.903 457.791C260.414 458.007 259.824 458.114 259.132 458.114H255.947ZM255.341 458.114V448.397H256.553V458.114H255.341ZM267.24 458.242C266.553 458.242 265.958 458.092 265.456 457.791C264.957 457.486 264.571 457.052 264.297 456.491C264.028 455.93 263.893 455.263 263.893 454.491V454.478C263.893 453.701 264.028 453.032 264.297 452.471C264.571 451.91 264.957 451.479 265.456 451.178C265.958 450.877 266.553 450.727 267.24 450.727C267.932 450.727 268.527 450.877 269.025 451.178C269.523 451.479 269.907 451.91 270.176 452.471C270.45 453.032 270.587 453.701 270.587 454.478V454.491C270.587 455.263 270.45 455.93 270.176 456.491C269.907 457.052 269.523 457.486 269.025 457.791C268.527 458.092 267.932 458.242 267.24 458.242ZM267.24 457.205C267.698 457.205 268.087 457.097 268.405 456.882C268.724 456.666 268.966 456.357 269.133 455.953C269.303 455.548 269.389 455.061 269.389 454.491V454.478C269.389 453.903 269.303 453.414 269.133 453.01C268.966 452.606 268.724 452.298 268.405 452.087C268.087 451.872 267.698 451.764 267.24 451.764C266.782 451.764 266.394 451.872 266.075 452.087C265.756 452.298 265.512 452.606 265.341 453.01C265.175 453.414 265.092 453.903 265.092 454.478V454.491C265.092 455.061 265.175 455.548 265.341 455.953C265.512 456.357 265.756 456.666 266.075 456.882C266.394 457.097 266.782 457.205 267.24 457.205ZM275.389 458.242C274.702 458.242 274.107 458.092 273.604 457.791C273.106 457.486 272.72 457.052 272.446 456.491C272.177 455.93 272.042 455.263 272.042 454.491V454.478C272.042 453.701 272.177 453.032 272.446 452.471C272.72 451.91 273.106 451.479 273.604 451.178C274.107 450.877 274.702 450.727 275.389 450.727C276.08 450.727 276.675 450.877 277.173 451.178C277.672 451.479 278.056 451.91 278.325 452.471C278.599 453.032 278.736 453.701 278.736 454.478V454.491C278.736 455.263 278.599 455.93 278.325 456.491C278.056 457.052 277.672 457.486 277.173 457.791C276.675 458.092 276.08 458.242 275.389 458.242ZM275.389 457.205C275.847 457.205 276.235 457.097 276.554 456.882C276.873 456.666 277.115 456.357 277.281 455.953C277.452 455.548 277.537 455.061 277.537 454.491V454.478C277.537 453.903 277.452 453.414 277.281 453.01C277.115 452.606 276.873 452.298 276.554 452.087C276.235 451.872 275.847 451.764 275.389 451.764C274.931 451.764 274.543 451.872 274.224 452.087C273.905 452.298 273.66 452.606 273.49 453.01C273.324 453.414 273.241 453.903 273.241 454.478V454.491C273.241 455.061 273.324 455.548 273.49 455.953C273.66 456.357 273.905 456.666 274.224 456.882C274.543 457.097 274.931 457.205 275.389 457.205ZM280.621 458.114V447.972H281.793V458.114H280.621ZM285.194 458.114L282.359 454.559L283.221 453.811L286.669 458.114H285.194ZM281.645 455.501L281.591 454.027H281.901L285.039 450.855H286.46L283.012 454.181L282.729 454.458L281.645 455.501Z" fill="#434343"/>
        <path d="M66.2983 485.996C66.2983 481.874 69.6396 478.533 73.7612 478.533H295.061C299.183 478.533 302.524 481.874 302.524 485.996V561.976C302.524 566.097 299.183 569.439 295.061 569.439H73.7612C69.6395 569.439 66.2983 566.097 66.2983 561.976V485.996Z" fill="white"/>
        <path d="M66.2983 485.996C66.2983 481.874 69.6396 478.533 73.7612 478.533H295.061C299.183 478.533 302.524 481.874 302.524 485.996V561.976C302.524 566.097 299.183 569.439 295.061 569.439H73.7612C69.6395 569.439 66.2983 566.097 66.2983 561.976V485.996Z" stroke="#E7E6E0" stroke-width="0.995051"/>
        <path d="M79.8096 501.774V500.373H82.3956C83.0197 500.373 83.5045 500.213 83.8502 499.895C84.1959 499.571 84.3688 499.118 84.3688 498.534V498.521C84.3688 497.933 84.1959 497.479 83.8502 497.161C83.5045 496.842 83.0197 496.682 82.3956 496.682H79.8096V495.268H82.8199C83.4798 495.268 84.0568 495.403 84.5506 495.672C85.0445 495.942 85.4306 496.321 85.7089 496.81C85.9873 497.295 86.1264 497.863 86.1264 498.514V498.528C86.1264 499.174 85.9873 499.742 85.7089 500.231C85.4306 500.716 85.0445 501.096 84.5506 501.37C84.0568 501.639 83.4798 501.774 82.8199 501.774H79.8096ZM78.9409 504.986V495.268H80.6784V504.986H78.9409ZM87.7529 504.986V497.625H89.423V504.986H87.7529ZM88.5947 496.393C88.3208 496.393 88.0851 496.296 87.8876 496.103C87.6901 495.91 87.5913 495.679 87.5913 495.41C87.5913 495.131 87.6901 494.898 87.8876 494.709C88.0851 494.516 88.3208 494.42 88.5947 494.42C88.8686 494.42 89.102 494.516 89.2951 494.709C89.4926 494.898 89.5914 495.131 89.5914 495.41C89.5914 495.679 89.4926 495.91 89.2951 496.103C89.102 496.296 88.8686 496.393 88.5947 496.393ZM94.511 505.134C93.7702 505.134 93.1371 504.981 92.6119 504.676C92.0866 504.371 91.6848 503.931 91.4064 503.356C91.1281 502.781 90.9889 502.095 90.9889 501.295V501.282C90.9889 500.487 91.1281 499.807 91.4064 499.241C91.6848 498.676 92.0866 498.243 92.6119 497.942C93.1371 497.636 93.7679 497.484 94.5042 497.484C95.1372 497.484 95.6805 497.594 96.1339 497.814C96.5919 498.029 96.9533 498.33 97.2182 498.716C97.4875 499.098 97.6536 499.544 97.7165 500.056V500.083H96.1339L96.1272 500.063C96.0509 499.704 95.8758 499.41 95.6019 499.181C95.3325 498.952 94.9689 498.837 94.511 498.837C94.1293 498.837 93.8016 498.934 93.5277 499.127C93.2584 499.32 93.0518 499.598 92.9082 499.962C92.7645 500.326 92.6927 500.766 92.6927 501.282V501.295C92.6927 501.816 92.7645 502.263 92.9082 502.636C93.0563 503.004 93.2651 503.287 93.5345 503.484C93.8038 503.677 94.1293 503.774 94.511 503.774C94.9464 503.774 95.2966 503.675 95.5615 503.477C95.8309 503.28 96.0172 502.988 96.1205 502.602L96.1339 502.575L97.7098 502.568L97.703 502.629C97.6222 503.127 97.4471 503.565 97.1778 503.942C96.9129 504.319 96.5582 504.613 96.1137 504.824C95.6693 505.031 95.135 505.134 94.511 505.134ZM99.242 504.986V494.777H100.919V504.986H99.242ZM103.868 504.986L101.39 501.646L102.636 500.622L105.882 504.986H103.868ZM100.777 502.548L100.717 500.649H101.033L103.747 497.625H105.687L102.488 500.986L101.72 501.585L100.777 502.548ZM113.014 505.134C112.466 505.134 112.006 505.028 111.633 504.817C111.261 504.602 110.98 504.29 110.792 503.881C110.603 503.468 110.509 502.97 110.509 502.386V497.625H112.186V502.003C112.186 502.573 112.298 503.001 112.522 503.289C112.747 503.576 113.113 503.72 113.62 503.72C113.889 503.72 114.127 503.679 114.334 503.599C114.545 503.513 114.72 503.392 114.859 503.235C114.998 503.078 115.104 502.889 115.176 502.669C115.248 502.445 115.283 502.193 115.283 501.915V497.625H116.96V504.986H115.283V503.868H115.169C115.057 504.128 114.9 504.355 114.698 504.548C114.496 504.737 114.253 504.883 113.97 504.986C113.687 505.085 113.369 505.134 113.014 505.134ZM118.87 507.43V497.625H120.546V498.777H120.661C120.796 498.512 120.971 498.285 121.186 498.097C121.406 497.908 121.66 497.762 121.947 497.659C122.235 497.556 122.551 497.504 122.897 497.504C123.512 497.504 124.044 497.659 124.493 497.969C124.946 498.278 125.296 498.718 125.543 499.289C125.795 499.854 125.92 500.525 125.92 501.302V501.316C125.92 502.097 125.797 502.77 125.55 503.336C125.303 503.902 124.953 504.339 124.499 504.649C124.051 504.954 123.516 505.107 122.897 505.107C122.56 505.107 122.246 505.055 121.954 504.952C121.662 504.844 121.406 504.694 121.186 504.501C120.966 504.308 120.791 504.079 120.661 503.814H120.546V507.43H118.87ZM122.371 503.693C122.753 503.693 123.081 503.599 123.355 503.41C123.629 503.217 123.84 502.943 123.988 502.588C124.136 502.229 124.21 501.805 124.21 501.316V501.302C124.21 500.804 124.136 500.377 123.988 500.023C123.84 499.668 123.629 499.396 123.355 499.208C123.081 499.015 122.753 498.918 122.371 498.918C121.99 498.918 121.66 499.015 121.381 499.208C121.108 499.396 120.894 499.668 120.742 500.023C120.594 500.377 120.519 500.802 120.519 501.295V501.309C120.519 501.803 120.594 502.229 120.742 502.588C120.894 502.943 121.11 503.217 121.388 503.41C121.667 503.599 121.994 503.693 122.371 503.693ZM131.551 504.986V498.925H130.345V497.625H131.551V496.898C131.551 496.404 131.634 495.996 131.8 495.672C131.97 495.349 132.233 495.109 132.588 494.952C132.942 494.79 133.391 494.709 133.935 494.709C134.114 494.709 134.28 494.716 134.433 494.729C134.586 494.738 134.727 494.754 134.857 494.777V495.948C134.794 495.939 134.714 495.933 134.615 495.928C134.516 495.919 134.408 495.915 134.291 495.915C133.896 495.915 133.616 496.007 133.45 496.191C133.284 496.37 133.201 496.638 133.201 496.992V497.625H134.797V498.925H133.227V504.986H131.551ZM136.275 504.986V497.625H137.952V498.757H138.066C138.192 498.361 138.416 498.054 138.74 497.834C139.067 497.614 139.474 497.504 139.959 497.504C140.084 497.504 140.208 497.513 140.329 497.531C140.455 497.544 140.558 497.562 140.639 497.585V499.087C140.504 499.055 140.367 499.033 140.228 499.019C140.093 499.001 139.952 498.992 139.804 498.992C139.431 498.992 139.106 499.062 138.827 499.201C138.549 499.34 138.333 499.54 138.181 499.8C138.028 500.056 137.952 500.359 137.952 500.71V504.986H136.275ZM144.865 505.134C144.133 505.134 143.502 504.981 142.972 504.676C142.443 504.366 142.034 503.926 141.747 503.356C141.464 502.786 141.322 502.104 141.322 501.309V501.295C141.322 500.51 141.466 499.832 141.753 499.262C142.041 498.687 142.447 498.247 142.972 497.942C143.502 497.636 144.133 497.484 144.865 497.484C145.596 497.484 146.225 497.636 146.75 497.942C147.28 498.247 147.689 498.685 147.976 499.255C148.263 499.825 148.407 500.505 148.407 501.295V501.309C148.407 502.104 148.263 502.786 147.976 503.356C147.693 503.926 147.287 504.366 146.757 504.676C146.232 504.981 145.601 505.134 144.865 505.134ZM144.865 503.774C145.251 503.774 145.579 503.677 145.848 503.484C146.122 503.287 146.331 503.006 146.474 502.642C146.618 502.274 146.69 501.832 146.69 501.316V501.302C146.69 500.781 146.618 500.339 146.474 499.975C146.331 499.607 146.122 499.327 145.848 499.134C145.579 498.936 145.251 498.837 144.865 498.837C144.479 498.837 144.149 498.936 143.875 499.134C143.601 499.327 143.392 499.607 143.248 499.975C143.105 500.339 143.033 500.781 143.033 501.302V501.316C143.033 501.832 143.105 502.274 143.248 502.642C143.392 503.01 143.599 503.291 143.868 503.484C144.142 503.677 144.474 503.774 144.865 503.774ZM149.953 504.986V497.625H151.629V498.77H151.744C151.901 498.361 152.155 498.045 152.505 497.821C152.86 497.596 153.279 497.484 153.764 497.484C154.096 497.484 154.395 497.538 154.66 497.645C154.929 497.753 155.16 497.906 155.354 498.103C155.547 498.301 155.695 498.537 155.798 498.81H155.919C156.04 498.546 156.209 498.314 156.424 498.117C156.644 497.915 156.9 497.76 157.192 497.652C157.488 497.54 157.807 497.484 158.148 497.484C158.642 497.484 159.064 497.583 159.414 497.78C159.769 497.973 160.041 498.252 160.229 498.615C160.422 498.979 160.519 499.414 160.519 499.922V504.986H158.842V500.332C158.842 500.009 158.793 499.742 158.694 499.531C158.599 499.32 158.454 499.161 158.256 499.053C158.058 498.945 157.809 498.891 157.509 498.891C157.217 498.891 156.963 498.959 156.748 499.093C156.532 499.223 156.364 499.401 156.242 499.625C156.126 499.85 156.067 500.103 156.067 500.386V504.986H154.391V500.211C154.391 499.937 154.337 499.702 154.229 499.504C154.126 499.307 153.973 499.156 153.771 499.053C153.573 498.945 153.338 498.891 153.064 498.891C152.79 498.891 152.543 498.963 152.323 499.107C152.108 499.246 151.937 499.439 151.811 499.686C151.69 499.928 151.629 500.202 151.629 500.508V504.986H149.953ZM166.068 504.986V495.268H167.806V503.524H172.257V504.986H166.068ZM175.83 505.107C175.367 505.107 174.952 505.017 174.584 504.838C174.22 504.658 173.933 504.404 173.722 504.077C173.515 503.744 173.412 503.354 173.412 502.905V502.891C173.412 502.456 173.52 502.081 173.735 501.767C173.951 501.448 174.267 501.199 174.685 501.019C175.102 500.84 175.61 500.734 176.207 500.703L178.927 500.534V501.639L176.443 501.8C175.971 501.827 175.623 501.926 175.399 502.097C175.174 502.267 175.062 502.505 175.062 502.811V502.824C175.062 503.138 175.181 503.383 175.419 503.558C175.661 503.733 175.969 503.821 176.341 503.821C176.678 503.821 176.979 503.753 177.244 503.619C177.509 503.484 177.718 503.302 177.87 503.073C178.023 502.84 178.099 502.577 178.099 502.285V499.955C178.099 499.587 177.982 499.307 177.749 499.113C177.516 498.916 177.17 498.817 176.712 498.817C176.33 498.817 176.018 498.885 175.776 499.019C175.533 499.149 175.369 499.336 175.284 499.578L175.277 499.605H173.695L173.702 499.544C173.756 499.131 173.917 498.77 174.186 498.46C174.456 498.15 174.813 497.91 175.257 497.74C175.702 497.569 176.214 497.484 176.793 497.484C177.43 497.484 177.969 497.583 178.409 497.78C178.849 497.973 179.183 498.256 179.412 498.629C179.641 498.997 179.756 499.439 179.756 499.955V504.986H178.099V503.976H177.985C177.85 504.209 177.675 504.411 177.459 504.582C177.248 504.752 177.006 504.883 176.732 504.972C176.458 505.062 176.157 505.107 175.83 505.107ZM184.413 505.134C183.789 505.134 183.25 505.046 182.796 504.871C182.348 504.692 181.993 504.445 181.732 504.131C181.472 503.812 181.317 503.444 181.268 503.026V503.013H182.931L182.938 503.026C183.028 503.282 183.196 503.491 183.443 503.652C183.69 503.814 184.022 503.895 184.44 503.895C184.718 503.895 184.963 503.857 185.174 503.78C185.385 503.7 185.551 503.59 185.672 503.45C185.793 503.311 185.854 503.15 185.854 502.966V502.952C185.854 502.737 185.766 502.557 185.591 502.413C185.416 502.265 185.127 502.146 184.723 502.056L183.531 501.787C183.064 501.684 182.678 501.54 182.372 501.356C182.067 501.172 181.838 500.945 181.685 500.676C181.537 500.406 181.463 500.092 181.463 499.733V499.726C181.463 499.282 181.587 498.891 181.833 498.555C182.085 498.218 182.433 497.955 182.877 497.767C183.322 497.578 183.834 497.484 184.413 497.484C185.01 497.484 185.524 497.574 185.955 497.753C186.386 497.933 186.723 498.18 186.965 498.494C187.207 498.808 187.347 499.165 187.383 499.565V499.578H185.807L185.8 499.558C185.737 499.325 185.587 499.127 185.349 498.965C185.115 498.799 184.801 498.716 184.406 498.716C184.159 498.716 183.937 498.754 183.739 498.831C183.546 498.907 183.394 499.015 183.281 499.154C183.174 499.289 183.12 499.448 183.12 499.632V499.639C183.12 499.782 183.156 499.908 183.227 500.016C183.304 500.124 183.423 500.218 183.584 500.299C183.746 500.38 183.959 500.451 184.224 500.514L185.416 500.777C186.139 500.939 186.673 501.179 187.019 501.497C187.365 501.816 187.537 502.245 187.537 502.784V502.797C187.537 503.264 187.403 503.673 187.133 504.023C186.864 504.373 186.494 504.647 186.022 504.844C185.551 505.037 185.014 505.134 184.413 505.134ZM195.444 504.986L192.083 495.268H193.996L196.4 502.979H196.515L198.925 495.268H200.838L197.471 504.986H195.444ZM204.599 505.134C203.868 505.134 203.239 504.979 202.714 504.669C202.193 504.36 201.791 503.92 201.508 503.349C201.225 502.779 201.084 502.104 201.084 501.322V501.316C201.084 500.543 201.223 499.87 201.502 499.295C201.784 498.721 202.184 498.276 202.7 497.962C203.217 497.643 203.823 497.484 204.518 497.484C205.219 497.484 205.82 497.639 206.323 497.948C206.831 498.254 207.221 498.683 207.495 499.235C207.769 499.787 207.906 500.433 207.906 501.174V501.726H201.926V500.602H207.084L206.29 501.652V500.986C206.29 500.496 206.216 500.09 206.067 499.767C205.919 499.443 205.713 499.201 205.448 499.039C205.187 498.878 204.884 498.797 204.539 498.797C204.193 498.797 203.885 498.882 203.616 499.053C203.351 499.219 203.14 499.466 202.983 499.794C202.83 500.117 202.754 500.514 202.754 500.986V501.659C202.754 502.113 202.83 502.501 202.983 502.824C203.136 503.143 203.351 503.39 203.63 503.565C203.912 503.735 204.247 503.821 204.633 503.821C204.934 503.821 205.192 503.778 205.407 503.693C205.627 503.603 205.805 503.498 205.939 503.376C206.074 503.251 206.168 503.132 206.222 503.019L206.242 502.972H207.832L207.818 503.033C207.76 503.271 207.652 503.513 207.495 503.76C207.342 504.003 207.134 504.229 206.869 504.44C206.608 504.647 206.29 504.815 205.912 504.945C205.535 505.071 205.098 505.134 204.599 505.134ZM212.61 507.572C211.963 507.572 211.404 507.487 210.933 507.316C210.466 507.145 210.098 506.903 209.829 506.589C209.559 506.279 209.395 505.917 209.337 505.504L209.344 505.484H211.014L211.027 505.504C211.081 505.738 211.245 505.929 211.519 506.077C211.797 506.229 212.17 506.306 212.637 506.306C213.212 506.306 213.656 506.178 213.97 505.922C214.289 505.666 214.448 505.302 214.448 504.831V503.417H214.334C214.195 503.682 214.013 503.906 213.788 504.09C213.568 504.274 213.315 504.413 213.027 504.508C212.745 504.597 212.433 504.642 212.091 504.642C211.472 504.642 210.935 504.494 210.482 504.198C210.028 503.897 209.678 503.482 209.431 502.952C209.189 502.422 209.068 501.809 209.068 501.114V501.1C209.068 500.391 209.191 499.767 209.438 499.228C209.685 498.689 210.035 498.267 210.489 497.962C210.947 497.657 211.492 497.504 212.125 497.504C212.466 497.504 212.778 497.558 213.061 497.666C213.348 497.773 213.6 497.926 213.815 498.124C214.035 498.321 214.215 498.559 214.354 498.837H214.442V497.625H216.119V504.804C216.119 505.37 215.975 505.859 215.688 506.272C215.405 506.69 215.001 507.011 214.475 507.235C213.95 507.46 213.328 507.572 212.61 507.572ZM212.61 503.309C212.996 503.309 213.328 503.217 213.607 503.033C213.885 502.844 214.098 502.586 214.246 502.258C214.399 501.931 214.475 501.549 214.475 501.114V501.1C214.475 500.665 214.399 500.283 214.246 499.955C214.098 499.623 213.885 499.365 213.607 499.181C213.328 498.992 212.996 498.898 212.61 498.898C212.219 498.898 211.887 498.992 211.613 499.181C211.344 499.365 211.137 499.623 210.994 499.955C210.855 500.283 210.785 500.665 210.785 501.1V501.114C210.785 501.545 210.855 501.926 210.994 502.258C211.137 502.586 211.344 502.844 211.613 503.033C211.887 503.217 212.219 503.309 212.61 503.309ZM220.041 505.107C219.579 505.107 219.164 505.017 218.796 504.838C218.432 504.658 218.145 504.404 217.934 504.077C217.727 503.744 217.624 503.354 217.624 502.905V502.891C217.624 502.456 217.732 502.081 217.947 501.767C218.163 501.448 218.479 501.199 218.897 501.019C219.314 500.84 219.821 500.734 220.419 500.703L223.139 500.534V501.639L220.654 501.8C220.183 501.827 219.835 501.926 219.61 502.097C219.386 502.267 219.274 502.505 219.274 502.811V502.824C219.274 503.138 219.393 503.383 219.631 503.558C219.873 503.733 220.181 503.821 220.553 503.821C220.89 503.821 221.191 503.753 221.456 503.619C221.721 503.484 221.929 503.302 222.082 503.073C222.235 502.84 222.311 502.577 222.311 502.285V499.955C222.311 499.587 222.194 499.307 221.961 499.113C221.727 498.916 221.382 498.817 220.924 498.817C220.542 498.817 220.23 498.885 219.988 499.019C219.745 499.149 219.581 499.336 219.496 499.578L219.489 499.605H217.907L217.913 499.544C217.967 499.131 218.129 498.77 218.398 498.46C218.668 498.15 219.025 497.91 219.469 497.74C219.913 497.569 220.425 497.484 221.004 497.484C221.642 497.484 222.181 497.583 222.621 497.78C223.061 497.973 223.395 498.256 223.624 498.629C223.853 498.997 223.968 499.439 223.968 499.955V504.986H222.311V503.976H222.196C222.062 504.209 221.887 504.411 221.671 504.582C221.46 504.752 221.218 504.883 220.944 504.972C220.67 505.062 220.369 505.107 220.041 505.107ZM228.624 505.134C228 505.134 227.462 505.046 227.008 504.871C226.559 504.692 226.205 504.445 225.944 504.131C225.684 503.812 225.529 503.444 225.48 503.026V503.013H227.143L227.15 503.026C227.239 503.282 227.408 503.491 227.655 503.652C227.902 503.814 228.234 503.895 228.651 503.895C228.93 503.895 229.174 503.857 229.385 503.78C229.596 503.7 229.763 503.59 229.884 503.45C230.005 503.311 230.066 503.15 230.066 502.966V502.952C230.066 502.737 229.978 502.557 229.803 502.413C229.628 502.265 229.338 502.146 228.934 502.056L227.742 501.787C227.275 501.684 226.889 501.54 226.584 501.356C226.279 501.172 226.05 500.945 225.897 500.676C225.749 500.406 225.675 500.092 225.675 499.733V499.726C225.675 499.282 225.798 498.891 226.045 498.555C226.297 498.218 226.645 497.955 227.089 497.767C227.533 497.578 228.045 497.484 228.624 497.484C229.222 497.484 229.736 497.574 230.167 497.753C230.598 497.933 230.934 498.18 231.177 498.494C231.419 498.808 231.558 499.165 231.594 499.565V499.578H230.018L230.012 499.558C229.949 499.325 229.798 499.127 229.561 498.965C229.327 498.799 229.013 498.716 228.618 498.716C228.371 498.716 228.149 498.754 227.951 498.831C227.758 498.907 227.605 499.015 227.493 499.154C227.385 499.289 227.331 499.448 227.331 499.632V499.639C227.331 499.782 227.367 499.908 227.439 500.016C227.516 500.124 227.635 500.218 227.796 500.299C227.958 500.38 228.171 500.451 228.436 500.514L229.628 500.777C230.351 500.939 230.885 501.179 231.231 501.497C231.576 501.816 231.749 502.245 231.749 502.784V502.797C231.749 503.264 231.614 503.673 231.345 504.023C231.076 504.373 230.705 504.647 230.234 504.844C229.763 505.037 229.226 505.134 228.624 505.134ZM82.995 529.228C82.0746 529.228 81.28 529.022 80.611 528.609C79.9466 528.196 79.4325 527.61 79.0689 526.851C78.7097 526.088 78.5301 525.183 78.5301 524.137V524.124C78.5301 523.073 78.7097 522.168 79.0689 521.41C79.4325 520.646 79.9466 520.058 80.611 519.645C81.2755 519.232 82.0679 519.026 82.9882 519.026C83.7245 519.026 84.389 519.172 84.9816 519.463C85.5742 519.751 86.0568 520.15 86.4295 520.662C86.8021 521.17 87.0266 521.753 87.1029 522.413L87.0962 522.467H85.3991L85.3924 522.433C85.3116 522.052 85.1589 521.719 84.9345 521.437C84.71 521.149 84.4316 520.927 84.0994 520.77C83.7672 520.608 83.3968 520.528 82.9882 520.528C82.4405 520.528 81.9646 520.673 81.5606 520.965C81.1565 521.257 80.8445 521.672 80.6245 522.211C80.409 522.745 80.3012 523.381 80.3012 524.117V524.13C80.3012 524.867 80.409 525.504 80.6245 526.043C80.8445 526.582 81.1565 526.997 81.5606 527.289C81.9646 527.581 82.4428 527.727 82.995 527.727C83.408 527.727 83.7784 527.655 84.1061 527.511C84.4384 527.367 84.7145 527.165 84.9345 526.905C85.1589 526.64 85.3116 526.33 85.3924 525.976L85.4059 525.935H87.1029V525.989C87.0176 526.636 86.7909 527.201 86.4227 527.686C86.0546 528.171 85.5787 528.55 84.9951 528.824C84.4114 529.094 83.7447 529.228 82.995 529.228ZM91.908 529.134C91.1762 529.134 90.5454 528.981 90.0156 528.676C89.4859 528.366 89.0773 527.926 88.79 527.356C88.5072 526.786 88.3657 526.104 88.3657 525.309V525.295C88.3657 524.51 88.5094 523.832 88.7967 523.262C89.0841 522.687 89.4904 522.247 90.0156 521.942C90.5454 521.636 91.1762 521.484 91.908 521.484C92.6398 521.484 93.2683 521.636 93.7936 521.942C94.3234 522.247 94.7319 522.685 95.0193 523.255C95.3066 523.825 95.4503 524.505 95.4503 525.295V525.309C95.4503 526.104 95.3066 526.786 95.0193 527.356C94.7364 527.926 94.3301 528.366 93.8003 528.676C93.2751 528.981 92.6443 529.134 91.908 529.134ZM91.908 527.774C92.2941 527.774 92.6218 527.677 92.8912 527.484C93.1651 527.287 93.3738 527.006 93.5175 526.642C93.6612 526.274 93.733 525.832 93.733 525.316V525.302C93.733 524.781 93.6612 524.339 93.5175 523.975C93.3738 523.607 93.1651 523.327 92.8912 523.134C92.6218 522.936 92.2941 522.837 91.908 522.837C91.5219 522.837 91.1919 522.936 90.9181 523.134C90.6442 523.327 90.4354 523.607 90.2918 523.975C90.1481 524.339 90.0763 524.781 90.0763 525.302V525.316C90.0763 525.832 90.1481 526.274 90.2918 526.642C90.4354 527.01 90.6419 527.291 90.9113 527.484C91.1852 527.677 91.5174 527.774 91.908 527.774ZM96.9959 528.986V521.625H98.6728V522.757H98.7873C98.9624 522.357 99.2272 522.045 99.5819 521.821C99.9366 521.596 100.379 521.484 100.909 521.484C101.73 521.484 102.359 521.722 102.794 522.198C103.23 522.674 103.447 523.349 103.447 524.225V528.986H101.771V524.615C101.771 524.041 101.649 523.61 101.407 523.322C101.169 523.035 100.796 522.891 100.289 522.891C99.9568 522.891 99.6695 522.965 99.427 523.113C99.1846 523.262 98.9983 523.47 98.8681 523.74C98.7379 524.009 98.6728 524.328 98.6728 524.696V528.986H96.9959ZM107.04 528.986L104.421 521.625H106.212L107.909 527.349H108.03L109.721 521.625H111.485L108.872 528.986H107.04ZM115.617 529.134C114.885 529.134 114.256 528.979 113.731 528.669C113.21 528.36 112.808 527.92 112.526 527.349C112.243 526.779 112.101 526.104 112.101 525.322V525.316C112.101 524.543 112.24 523.87 112.519 523.295C112.802 522.721 113.201 522.276 113.718 521.962C114.234 521.643 114.84 521.484 115.536 521.484C116.236 521.484 116.838 521.639 117.341 521.948C117.848 522.254 118.239 522.683 118.512 523.235C118.786 523.787 118.923 524.433 118.923 525.174V525.726H112.943V524.602H118.102L117.307 525.652V524.986C117.307 524.496 117.233 524.09 117.085 523.767C116.937 523.443 116.73 523.201 116.465 523.039C116.205 522.878 115.902 522.797 115.556 522.797C115.21 522.797 114.903 522.882 114.633 523.053C114.369 523.219 114.158 523.466 114 523.794C113.848 524.117 113.771 524.514 113.771 524.986V525.659C113.771 526.113 113.848 526.501 114 526.824C114.153 527.143 114.369 527.39 114.647 527.565C114.93 527.735 115.264 527.821 115.65 527.821C115.951 527.821 116.209 527.778 116.425 527.693C116.645 527.603 116.822 527.498 116.957 527.376C117.091 527.251 117.186 527.132 117.24 527.019L117.26 526.972H118.849L118.836 527.033C118.777 527.271 118.67 527.513 118.512 527.76C118.36 528.003 118.151 528.229 117.886 528.44C117.626 528.647 117.307 528.815 116.93 528.945C116.553 529.071 116.115 529.134 115.617 529.134ZM120.462 528.986V521.625H122.139V522.757H122.253C122.429 522.357 122.693 522.045 123.048 521.821C123.403 521.596 123.845 521.484 124.375 521.484C125.196 521.484 125.825 521.722 126.26 522.198C126.696 522.674 126.914 523.349 126.914 524.225V528.986H125.237V524.615C125.237 524.041 125.116 523.61 124.873 523.322C124.635 523.035 124.263 522.891 123.755 522.891C123.423 522.891 123.136 522.965 122.893 523.113C122.651 523.262 122.464 523.47 122.334 523.74C122.204 524.009 122.139 524.328 122.139 524.696V528.986H120.462ZM131.651 529.02C130.807 529.02 130.199 528.865 129.826 528.555C129.454 528.245 129.267 527.738 129.267 527.033V522.925H128.123V521.625H129.267V519.82H130.971V521.625H132.52V522.925H130.971V526.636C130.971 526.999 131.048 527.266 131.2 527.437C131.357 527.603 131.609 527.686 131.954 527.686C132.076 527.686 132.174 527.684 132.251 527.679C132.332 527.67 132.421 527.661 132.52 527.652V528.945C132.403 528.968 132.269 528.986 132.116 528.999C131.968 529.013 131.813 529.02 131.651 529.02ZM134.079 528.986V521.625H135.749V528.986H134.079ZM134.921 520.393C134.647 520.393 134.411 520.296 134.214 520.103C134.016 519.91 133.918 519.679 133.918 519.41C133.918 519.131 134.016 518.898 134.214 518.709C134.411 518.516 134.647 518.42 134.921 518.42C135.195 518.42 135.428 518.516 135.621 518.709C135.819 518.898 135.918 519.131 135.918 519.41C135.918 519.679 135.819 519.91 135.621 520.103C135.428 520.296 135.195 520.393 134.921 520.393ZM140.857 529.134C140.126 529.134 139.495 528.981 138.965 528.676C138.435 528.366 138.027 527.926 137.739 527.356C137.457 526.786 137.315 526.104 137.315 525.309V525.295C137.315 524.51 137.459 523.832 137.746 523.262C138.034 522.687 138.44 522.247 138.965 521.942C139.495 521.636 140.126 521.484 140.857 521.484C141.589 521.484 142.218 521.636 142.743 521.942C143.273 522.247 143.681 522.685 143.969 523.255C144.256 523.825 144.4 524.505 144.4 525.295V525.309C144.4 526.104 144.256 526.786 143.969 527.356C143.686 527.926 143.28 528.366 142.75 528.676C142.225 528.981 141.594 529.134 140.857 529.134ZM140.857 527.774C141.244 527.774 141.571 527.677 141.841 527.484C142.115 527.287 142.323 527.006 142.467 526.642C142.611 526.274 142.682 525.832 142.682 525.316V525.302C142.682 524.781 142.611 524.339 142.467 523.975C142.323 523.607 142.115 523.327 141.841 523.134C141.571 522.936 141.244 522.837 140.857 522.837C140.471 522.837 140.141 522.936 139.868 523.134C139.594 523.327 139.385 523.607 139.241 523.975C139.098 524.339 139.026 524.781 139.026 525.302V525.316C139.026 525.832 139.098 526.274 139.241 526.642C139.385 527.01 139.591 527.291 139.861 527.484C140.135 527.677 140.467 527.774 140.857 527.774ZM145.945 528.986V521.625H147.622V522.757H147.737C147.912 522.357 148.177 522.045 148.531 521.821C148.886 521.596 149.328 521.484 149.858 521.484C150.68 521.484 151.308 521.722 151.744 522.198C152.179 522.674 152.397 523.349 152.397 524.225V528.986H150.72V524.615C150.72 524.041 150.599 523.61 150.356 523.322C150.118 523.035 149.746 522.891 149.238 522.891C148.906 522.891 148.619 522.965 148.376 523.113C148.134 523.262 147.948 523.47 147.818 523.74C147.687 524.009 147.622 524.328 147.622 524.696V528.986H145.945ZM162.007 529.228C161.087 529.228 160.292 529.022 159.623 528.609C158.959 528.196 158.445 527.61 158.081 526.851C157.722 526.088 157.542 525.183 157.542 524.137V524.124C157.542 523.073 157.722 522.168 158.081 521.41C158.445 520.646 158.959 520.058 159.623 519.645C160.288 519.232 161.08 519.026 162 519.026C162.737 519.026 163.401 519.172 163.994 519.463C164.586 519.751 165.069 520.15 165.442 520.662C165.814 521.17 166.039 521.753 166.115 522.413L166.108 522.467H164.411L164.404 522.433C164.324 522.052 164.171 521.719 163.947 521.437C163.722 521.149 163.444 520.927 163.111 520.77C162.779 520.608 162.409 520.528 162 520.528C161.453 520.528 160.977 520.673 160.573 520.965C160.169 521.257 159.857 521.672 159.637 522.211C159.421 522.745 159.313 523.381 159.313 524.117V524.13C159.313 524.867 159.421 525.504 159.637 526.043C159.857 526.582 160.169 526.997 160.573 527.289C160.977 527.581 161.455 527.727 162.007 527.727C162.42 527.727 162.79 527.655 163.118 527.511C163.45 527.367 163.727 527.165 163.947 526.905C164.171 526.64 164.324 526.33 164.404 525.976L164.418 525.935H166.115V525.989C166.03 526.636 165.803 527.201 165.435 527.686C165.067 528.171 164.591 528.55 164.007 528.824C163.424 529.094 162.757 529.228 162.007 529.228ZM170.893 529.134C170.161 529.134 169.533 528.979 169.008 528.669C168.487 528.36 168.085 527.92 167.802 527.349C167.519 526.779 167.378 526.104 167.378 525.322V525.316C167.378 524.543 167.517 523.87 167.795 523.295C168.078 522.721 168.478 522.276 168.994 521.962C169.51 521.643 170.116 521.484 170.812 521.484C171.513 521.484 172.114 521.639 172.617 521.948C173.124 522.254 173.515 522.683 173.789 523.235C174.063 523.787 174.2 524.433 174.2 525.174V525.726H168.22V524.602H173.378L172.583 525.652V524.986C172.583 524.496 172.509 524.09 172.361 523.767C172.213 523.443 172.007 523.201 171.742 523.039C171.481 522.878 171.178 522.797 170.833 522.797C170.487 522.797 170.179 522.882 169.91 523.053C169.645 523.219 169.434 523.466 169.277 523.794C169.124 524.117 169.048 524.514 169.048 524.986V525.659C169.048 526.113 169.124 526.501 169.277 526.824C169.43 527.143 169.645 527.39 169.923 527.565C170.206 527.735 170.541 527.821 170.927 527.821C171.228 527.821 171.486 527.778 171.701 527.693C171.921 527.603 172.099 527.498 172.233 527.376C172.368 527.251 172.462 527.132 172.516 527.019L172.536 526.972H174.126L174.112 527.033C174.054 527.271 173.946 527.513 173.789 527.76C173.636 528.003 173.427 528.229 173.163 528.44C172.902 528.647 172.583 528.815 172.206 528.945C171.829 529.071 171.391 529.134 170.893 529.134ZM175.739 528.986V521.625H177.415V522.757H177.53C177.705 522.357 177.97 522.045 178.325 521.821C178.679 521.596 179.122 521.484 179.651 521.484C180.473 521.484 181.101 521.722 181.537 522.198C181.972 522.674 182.19 523.349 182.19 524.225V528.986H180.513V524.615C180.513 524.041 180.392 523.61 180.15 523.322C179.912 523.035 179.539 522.891 179.032 522.891C178.699 522.891 178.412 522.965 178.17 523.113C177.927 523.262 177.741 523.47 177.611 523.74C177.481 524.009 177.415 524.328 177.415 524.696V528.986H175.739ZM186.928 529.02C186.084 529.02 185.475 528.865 185.103 528.555C184.73 528.245 184.544 527.738 184.544 527.033V522.925H183.399V521.625H184.544V519.82H186.248V521.625H187.797V522.925H186.248V526.636C186.248 526.999 186.324 527.266 186.477 527.437C186.634 527.603 186.885 527.686 187.231 527.686C187.352 527.686 187.451 527.684 187.527 527.679C187.608 527.67 187.698 527.661 187.797 527.652V528.945C187.68 528.968 187.545 528.986 187.393 528.999C187.244 529.013 187.089 529.02 186.928 529.02ZM192.42 529.134C191.688 529.134 191.06 528.979 190.534 528.669C190.013 528.36 189.612 527.92 189.329 527.349C189.046 526.779 188.905 526.104 188.905 525.322V525.316C188.905 524.543 189.044 523.87 189.322 523.295C189.605 522.721 190.004 522.276 190.521 521.962C191.037 521.643 191.643 521.484 192.339 521.484C193.039 521.484 193.641 521.639 194.144 521.948C194.651 522.254 195.042 522.683 195.316 523.235C195.589 523.787 195.726 524.433 195.726 525.174V525.726H189.746V524.602H194.905L194.11 525.652V524.986C194.11 524.496 194.036 524.09 193.888 523.767C193.74 523.443 193.533 523.201 193.268 523.039C193.008 522.878 192.705 522.797 192.359 522.797C192.014 522.797 191.706 522.882 191.437 523.053C191.172 523.219 190.961 523.466 190.804 523.794C190.651 524.117 190.575 524.514 190.575 524.986V525.659C190.575 526.113 190.651 526.501 190.804 526.824C190.956 527.143 191.172 527.39 191.45 527.565C191.733 527.735 192.067 527.821 192.454 527.821C192.754 527.821 193.012 527.778 193.228 527.693C193.448 527.603 193.625 527.498 193.76 527.376C193.895 527.251 193.989 527.132 194.043 527.019L194.063 526.972H195.652L195.639 527.033C195.58 527.271 195.473 527.513 195.316 527.76C195.163 528.003 194.954 528.229 194.689 528.44C194.429 528.647 194.11 528.815 193.733 528.945C193.356 529.071 192.918 529.134 192.42 529.134ZM197.265 528.986V521.625H198.942V522.757H199.057C199.182 522.361 199.407 522.054 199.73 521.834C200.058 521.614 200.464 521.504 200.949 521.504C201.075 521.504 201.198 521.513 201.319 521.531C201.445 521.544 201.548 521.562 201.629 521.585V523.087C201.495 523.055 201.358 523.033 201.218 523.019C201.084 523.001 200.942 522.992 200.794 522.992C200.422 522.992 200.096 523.062 199.818 523.201C199.539 523.34 199.324 523.54 199.171 523.8C199.019 524.056 198.942 524.359 198.942 524.71V528.986H197.265ZM201.565 531.552L202.151 527.504H203.875L202.71 531.552H201.565Z" fill="#434343"/>
        <path d="M80.8265 553.114C80.3686 553.114 79.9555 553.026 79.5874 552.851C79.2237 552.676 78.9342 552.427 78.7187 552.104C78.5077 551.78 78.4022 551.399 78.4022 550.959V550.945C78.4022 550.514 78.5054 550.146 78.7119 549.841C78.9185 549.531 79.2193 549.289 79.6143 549.114C80.0094 548.939 80.4876 548.835 81.0487 548.804L83.7155 548.642V549.578L81.1902 549.74C80.638 549.771 80.2339 549.886 79.978 550.083C79.7266 550.281 79.6009 550.559 79.6009 550.918V550.932C79.6009 551.3 79.74 551.587 80.0184 551.794C80.2967 551.996 80.6469 552.097 81.0689 552.097C81.4685 552.097 81.8232 552.018 82.133 551.861C82.4428 551.7 82.6852 551.482 82.8603 551.208C83.0399 550.934 83.1297 550.624 83.1297 550.279V548.016C83.1297 547.567 82.9927 547.226 82.7189 546.992C82.4495 546.754 82.0432 546.635 81.4999 546.635C81.0645 546.635 80.7075 546.714 80.4292 546.871C80.1508 547.024 79.9645 547.241 79.8702 547.524L79.8635 547.544H78.6917L78.6985 547.504C78.7613 547.122 78.9185 546.79 79.1699 546.507C79.4258 546.22 79.7558 545.998 80.1598 545.841C80.5639 545.679 81.0241 545.598 81.5404 545.598C82.133 545.598 82.6336 545.695 83.0421 545.888C83.4551 546.081 83.7672 546.359 83.9782 546.723C84.1937 547.082 84.3014 547.513 84.3014 548.016V552.986H83.1297V551.915H83.0219C82.8693 552.171 82.6829 552.389 82.463 552.568C82.2475 552.748 82.0028 552.885 81.7289 552.979C81.4551 553.069 81.1543 553.114 80.8265 553.114ZM88.8843 553.04C88.139 553.04 87.598 552.889 87.2613 552.589C86.9291 552.288 86.763 551.792 86.763 551.1V546.696H85.6181V545.726H86.763V543.847H87.9751V545.726H89.5644V546.696H87.9751V550.804C87.9751 551.23 88.056 551.538 88.2176 551.727C88.3792 551.911 88.6486 552.003 89.0257 552.003C89.129 552.003 89.2165 552 89.2883 551.996C89.3647 551.991 89.4567 551.985 89.5644 551.976V552.972C89.4522 552.99 89.34 553.006 89.2277 553.02C89.1155 553.033 89.001 553.04 88.8843 553.04ZM97.1476 553.215C96.7256 553.215 96.3507 553.154 96.0229 553.033C95.6952 552.912 95.4169 552.741 95.1879 552.521C94.9589 552.301 94.7793 552.043 94.6491 551.747C94.5189 551.45 94.4404 551.127 94.4134 550.777L94.4067 550.683H95.6189L95.6256 550.75C95.6526 550.992 95.7244 551.217 95.8411 551.423C95.9578 551.626 96.124 551.789 96.3395 551.915C96.555 552.036 96.8221 552.097 97.1408 552.097C97.6796 552.097 98.0904 551.942 98.3732 551.632C98.6561 551.318 98.7975 550.865 98.7975 550.272V543.268H100.01V550.285C100.01 550.896 99.8952 551.421 99.6662 551.861C99.4417 552.297 99.1163 552.631 98.6897 552.865C98.2632 553.098 97.7492 553.215 97.1476 553.215ZM104.195 553.114C103.737 553.114 103.324 553.026 102.956 552.851C102.592 552.676 102.303 552.427 102.087 552.104C101.876 551.78 101.771 551.399 101.771 550.959V550.945C101.771 550.514 101.874 550.146 102.081 549.841C102.287 549.531 102.588 549.289 102.983 549.114C103.378 548.939 103.856 548.835 104.417 548.804L107.084 548.642V549.578L104.559 549.74C104.007 549.771 103.603 549.886 103.347 550.083C103.095 550.281 102.97 550.559 102.97 550.918V550.932C102.97 551.3 103.109 551.587 103.387 551.794C103.665 551.996 104.016 552.097 104.438 552.097C104.837 552.097 105.192 552.018 105.502 551.861C105.811 551.7 106.054 551.482 106.229 551.208C106.409 550.934 106.498 550.624 106.498 550.279V548.016C106.498 547.567 106.361 547.226 106.088 546.992C105.818 546.754 105.412 546.635 104.869 546.635C104.433 546.635 104.076 546.714 103.798 546.871C103.52 547.024 103.333 547.241 103.239 547.524L103.232 547.544H102.06L102.067 547.504C102.13 547.122 102.287 546.79 102.539 546.507C102.794 546.22 103.124 545.998 103.528 545.841C103.933 545.679 104.393 545.598 104.909 545.598C105.502 545.598 106.002 545.695 106.411 545.888C106.824 546.081 107.136 546.359 107.347 546.723C107.562 547.082 107.67 547.513 107.67 548.016V552.986H106.498V551.915H106.391C106.238 552.171 106.052 552.389 105.832 552.568C105.616 552.748 105.371 552.885 105.098 552.979C104.824 553.069 104.523 553.114 104.195 553.114ZM109.674 552.986V545.726H110.845V546.817H110.953C111.137 546.431 111.402 546.133 111.748 545.922C112.094 545.706 112.534 545.598 113.068 545.598C113.885 545.598 114.511 545.832 114.947 546.299C115.387 546.761 115.607 547.423 115.607 548.285V552.986H114.435V548.568C114.435 547.913 114.296 547.428 114.017 547.113C113.744 546.795 113.317 546.635 112.738 546.635C112.352 546.635 112.017 546.718 111.734 546.885C111.452 547.051 111.232 547.286 111.074 547.592C110.922 547.897 110.845 548.263 110.845 548.689V552.986H109.674ZM123.702 552.986V544.615H123.594L121.122 546.406V545.127L123.708 543.268H124.914V552.986H123.702ZM129.961 552.986V544.615H129.854L127.382 546.406V545.127L129.968 543.268H131.173V552.986H129.961ZM133.217 555.457L133.803 551.626H135.144L134.086 555.457H133.217ZM143.582 552.986V544.615H143.474L141.003 546.406V545.127L143.589 543.268H144.794V552.986H143.582ZM149.842 552.986V544.615H149.734L147.262 546.406V545.127L149.848 543.268H151.054V552.986H149.842ZM154.687 551.605C154.449 551.605 154.243 551.52 154.068 551.349C153.897 551.174 153.812 550.968 153.812 550.73C153.812 550.487 153.897 550.281 154.068 550.11C154.243 549.94 154.449 549.854 154.687 549.854C154.93 549.854 155.136 549.94 155.307 550.11C155.477 550.281 155.563 550.487 155.563 550.73C155.563 550.968 155.477 551.174 155.307 551.349C155.136 551.52 154.93 551.605 154.687 551.605ZM154.687 546.393C154.449 546.393 154.243 546.308 154.068 546.137C153.897 545.962 153.812 545.755 153.812 545.517C153.812 545.275 153.897 545.069 154.068 544.898C154.243 544.727 154.449 544.642 154.687 544.642C154.93 544.642 155.136 544.727 155.307 544.898C155.477 545.069 155.563 545.275 155.563 545.517C155.563 545.755 155.477 545.962 155.307 546.137C155.136 546.308 154.93 546.393 154.687 546.393ZM160.92 553.147C160.251 553.147 159.667 553.033 159.169 552.804C158.671 552.575 158.276 552.261 157.984 551.861C157.696 551.462 157.53 551.006 157.485 550.494L157.479 550.413H158.644L158.65 550.481C158.682 550.799 158.794 551.08 158.987 551.322C159.185 551.565 159.447 551.756 159.775 551.895C160.107 552.03 160.489 552.097 160.92 552.097C161.346 552.097 161.719 552.023 162.038 551.875C162.361 551.727 162.612 551.522 162.792 551.262C162.972 550.997 163.061 550.694 163.061 550.353V550.339C163.061 549.742 162.862 549.284 162.462 548.965C162.067 548.642 161.528 548.481 160.846 548.481H159.627V547.457H160.792C161.178 547.457 161.519 547.385 161.816 547.241C162.112 547.093 162.343 546.894 162.509 546.642C162.675 546.386 162.758 546.097 162.758 545.773V545.76C162.758 545.419 162.687 545.129 162.543 544.891C162.399 544.653 162.188 544.471 161.91 544.346C161.636 544.22 161.301 544.157 160.906 544.157C160.525 544.157 160.184 544.222 159.883 544.352C159.586 544.478 159.349 544.66 159.169 544.898C158.989 545.136 158.882 545.419 158.846 545.746L158.839 545.814H157.674L157.681 545.746C157.735 545.217 157.901 544.754 158.179 544.359C158.462 543.964 158.834 543.657 159.297 543.437C159.764 543.217 160.3 543.107 160.906 543.107C161.526 543.107 162.065 543.214 162.523 543.43C162.985 543.641 163.342 543.935 163.593 544.312C163.849 544.685 163.977 545.118 163.977 545.612V545.625C163.977 546.025 163.89 546.379 163.715 546.689C163.54 546.999 163.297 547.257 162.987 547.464C162.678 547.67 162.321 547.816 161.917 547.901V547.928C162.626 547.987 163.198 548.227 163.634 548.649C164.074 549.066 164.294 549.621 164.294 550.312V550.326C164.294 550.865 164.148 551.347 163.856 551.774C163.564 552.2 163.165 552.537 162.657 552.784C162.15 553.026 161.571 553.147 160.92 553.147ZM169.375 553.215C168.657 553.215 168.042 553.008 167.53 552.595C167.022 552.182 166.632 551.596 166.358 550.838C166.084 550.074 165.947 549.172 165.947 548.13V548.117C165.947 547.075 166.084 546.175 166.358 545.416C166.632 544.658 167.022 544.072 167.53 543.659C168.042 543.246 168.657 543.039 169.375 543.039C170.093 543.039 170.708 543.246 171.22 543.659C171.732 544.072 172.125 544.658 172.399 545.416C172.677 546.175 172.816 547.075 172.816 548.117V548.13C172.816 549.172 172.677 550.074 172.399 550.838C172.125 551.596 171.732 552.182 171.22 552.595C170.708 553.008 170.093 553.215 169.375 553.215ZM169.375 552.158C169.842 552.158 170.239 551.994 170.567 551.666C170.899 551.338 171.153 550.874 171.328 550.272C171.507 549.67 171.597 548.956 171.597 548.13V548.117C171.597 547.291 171.507 546.579 171.328 545.982C171.153 545.381 170.899 544.918 170.567 544.595C170.239 544.267 169.842 544.103 169.375 544.103C168.913 544.103 168.515 544.267 168.183 544.595C167.855 544.918 167.604 545.381 167.429 545.982C167.254 546.579 167.166 547.291 167.166 548.117V548.13C167.166 548.956 167.254 549.67 167.429 550.272C167.604 550.874 167.855 551.338 168.183 551.666C168.515 551.994 168.913 552.158 169.375 552.158ZM173.917 552.986L177.5 543.268H178.429V544.837H178.046L175.19 552.986H173.917ZM175.54 550.205L175.917 549.174H180.308L180.685 550.205H175.54ZM181.009 552.986L178.153 544.837V543.268H178.699L182.281 552.986H181.009ZM183.847 552.986V543.268H185.255L188.582 551.376H188.689L192.016 543.268H193.424V552.986H192.292V545.565H191.7L193.06 543.538L189.147 552.986H188.124L184.218 543.538L185.571 545.565H184.979V552.986H183.847Z" fill="#434343"/>
    </g>
    <rect x="421.824" y="374.305" width="67.7735" height="67.7735" rx="13.0873" fill="#6E76F7"/>
    <g clip-path="url(#clip1_1140_31878)">
        <path d="M465.848 413.879C465.221 413.67 464.529 413.832 464.062 414.3L458.806 419.557L457.484 420.878C456.803 421.56 455.698 421.56 455.017 420.878L448.44 414.301C447.973 413.834 447.281 413.67 446.654 413.879C443.674 414.871 441.797 416.32 441.797 417.932C441.797 420.925 448.267 423.352 456.25 423.352C464.233 423.352 470.704 420.925 470.704 417.932C470.704 416.32 468.826 414.872 465.847 413.879L465.848 413.879Z" fill="white"/>
        <path d="M455.028 415.765C455.709 416.446 456.814 416.446 457.495 415.765L463.927 409.333C468.16 405.099 468.16 398.236 463.927 394.003C459.694 389.77 452.831 389.77 448.597 394.003C444.364 398.236 444.364 405.099 448.597 409.333L455.028 415.765ZM456.262 398.054C458.258 398.054 459.876 399.672 459.876 401.668C459.876 403.663 458.258 405.281 456.262 405.281C454.267 405.281 452.649 403.664 452.649 401.668C452.649 399.671 454.266 398.054 456.262 398.054Z" fill="white"/>
    </g>
    <rect x="-0.0078125" y="374.305" width="67.7735" height="67.7735" rx="10.4267" fill="#6B6B6B"/>
    <path d="M50.8092 407.577C50.7804 406.11 49.6597 404.903 48.2291 404.737C48.2255 404.723 48.2219 404.708 48.2183 404.694C47.9408 403.638 47.6634 402.586 47.3859 401.53C46.9138 399.732 46.4382 397.934 45.9625 396.135C45.822 395.599 45.6814 395.062 45.5373 394.525C45.5013 394.391 45.4688 394.258 45.4256 394.128C45.0941 393.17 44.4779 392.359 43.6094 391.826C42.8743 391.379 42.0383 391.227 41.1879 391.227H29.0513C28.1324 391.227 27.2171 391.224 26.3018 391.231C25.5379 391.238 24.7487 391.444 24.1001 391.858C23.2424 392.402 22.6226 393.213 22.3091 394.179C22.201 394.507 22.1289 394.849 22.0389 395.184C21.5992 396.853 21.1596 398.521 20.72 400.189C20.3452 401.613 19.9704 403.04 19.5921 404.463C19.5705 404.542 19.5524 404.618 19.5308 404.697C19.5272 404.712 19.5236 404.726 19.52 404.741C18.1074 404.903 16.9759 406.096 16.9435 407.551C16.9147 408.813 16.9399 410.077 16.9399 411.339V416.257C16.9399 416.387 16.9399 416.517 16.9435 416.643C16.9759 417.389 17.2894 418.124 17.8372 418.639C18.4137 419.183 19.1561 419.443 19.9416 419.443H20.7957V421.544C20.7957 421.911 20.7993 422.275 20.8029 422.643C20.8137 423.58 21.5524 424.347 22.4965 424.372C23.3722 424.398 24.2514 424.372 25.1271 424.372C25.9306 424.372 26.691 423.882 26.8784 423.068C26.9612 422.708 26.9288 422.326 26.9288 421.958C26.9288 421.119 26.9396 420.272 26.9324 419.443H40.8311V421.544C40.8311 421.911 40.8239 422.275 40.8275 422.643C40.8383 423.58 41.5698 424.347 42.514 424.372C43.3896 424.398 44.2653 424.372 45.1409 424.372C45.9445 424.372 46.7012 423.882 46.8922 423.068C46.9751 422.708 46.9427 422.326 46.9427 421.958C46.9427 421.119 46.9535 420.272 46.9463 419.443H47.8219C48.6327 419.443 49.4075 419.158 49.984 418.574C50.5137 418.034 50.8056 417.302 50.8128 416.549C50.8128 416.445 50.8164 416.337 50.8164 416.232V407.602C50.8128 407.595 50.8092 407.584 50.8092 407.577ZM23.7397 414.722C22.2767 414.722 21.0911 413.537 21.0911 412.074C21.0911 410.611 22.2731 409.425 23.7397 409.425C25.2027 409.425 26.3883 410.611 26.3883 412.074C26.3883 413.537 25.2027 414.722 23.7397 414.722ZM22.5073 404.705C22.7596 403.768 23.0118 402.791 23.2677 401.833C23.7613 399.962 24.2442 398.096 24.7379 396.226C24.846 395.811 24.9325 395.379 25.0658 394.968V394.964C25.0694 394.953 25.073 394.946 25.0766 394.935C25.0802 394.925 25.0874 394.914 25.091 394.907C25.091 394.907 25.091 394.907 25.0874 394.91C25.091 394.907 25.091 394.899 25.0946 394.896C25.0982 394.885 25.1054 394.874 25.109 394.86C25.1271 394.82 25.1451 394.784 25.1595 394.755C25.1595 394.752 25.1523 394.748 25.1523 394.744H25.1559C25.2244 394.658 25.2928 394.568 25.3613 394.481C25.3577 394.485 25.3541 394.485 25.3505 394.489C25.3541 394.485 25.3577 394.481 25.3613 394.478C25.3613 394.474 25.3649 394.474 25.3649 394.471C25.3649 394.471 25.3649 394.474 25.3613 394.474C25.4478 394.406 25.5379 394.337 25.6243 394.269C25.6135 394.272 25.6027 394.276 25.5955 394.28C25.6063 394.276 25.6171 394.269 25.6279 394.265C25.6316 394.262 25.6388 394.258 25.6424 394.254C25.6388 394.258 25.6352 394.262 25.6316 394.265C25.7361 394.222 25.8406 394.179 25.9415 394.135C25.8874 394.157 25.837 394.182 25.7865 394.208C25.9018 394.168 26.0171 394.135 26.136 394.114C26.0676 394.117 25.9991 394.125 25.9342 394.132C26.0063 394.121 26.0784 394.114 26.1505 394.103H26.1541C26.1577 394.103 26.1613 394.103 26.1649 394.103C26.1613 394.103 26.1613 394.103 26.1613 394.103C26.1757 394.099 26.1901 394.099 26.2045 394.099C26.1937 394.099 26.1829 394.103 26.1721 394.103C26.6766 394.067 27.1991 394.103 27.7036 394.103H39.6888C40.2762 394.103 40.8636 394.103 41.4473 394.107C41.4906 394.107 41.5374 394.11 41.5807 394.114C41.5518 394.107 41.523 394.103 41.4942 394.103C41.4726 394.103 41.4509 394.092 41.4293 394.089C41.523 394.103 41.6203 394.114 41.714 394.125C41.6816 394.121 41.6527 394.117 41.6203 394.117C41.6203 394.117 41.6203 394.117 41.6239 394.117C41.7356 394.143 41.8473 394.172 41.959 394.208C41.959 394.208 41.959 394.208 41.9626 394.208C41.9374 394.193 41.9122 394.182 41.8834 394.168C41.8617 394.157 41.8401 394.146 41.8185 394.139C41.9194 394.182 42.0167 394.222 42.1176 394.265C42.114 394.262 42.1104 394.258 42.1068 394.254C42.1104 394.258 42.1176 394.262 42.1212 394.265C42.132 394.269 42.1428 394.276 42.1536 394.28C42.1428 394.276 42.1356 394.272 42.1248 394.269C42.2113 394.337 42.3014 394.406 42.3878 394.474C42.3806 394.467 42.377 394.456 42.3698 394.449C42.377 394.456 42.3842 394.467 42.3914 394.474C42.4563 394.561 42.5248 394.647 42.5932 394.734C42.5932 394.734 42.5932 394.734 42.5932 394.73C42.5932 394.73 42.5932 394.734 42.5968 394.734C42.5968 394.734 42.5968 394.734 42.5932 394.73C42.5932 394.734 42.5968 394.741 42.5968 394.748C42.6401 394.82 42.6833 394.946 42.7266 395.047C42.705 394.997 42.6797 394.943 42.6545 394.896C42.777 395.249 42.8563 395.624 42.95 395.984C43.1662 396.806 43.3824 397.624 43.5986 398.445C44.0995 400.341 44.5968 402.229 45.0977 404.124C45.1481 404.319 45.1986 404.517 45.2526 404.697H22.5073V404.705ZM44.013 414.722C42.55 414.722 41.3644 413.537 41.3644 412.074C41.3644 410.611 42.55 409.425 44.013 409.425C45.476 409.425 46.6616 410.611 46.6616 412.074C46.6616 413.537 45.4796 414.722 44.013 414.722ZM26.1649 394.11C26.1613 394.11 26.1613 394.11 26.1577 394.11C26.1613 394.11 26.1649 394.11 26.1685 394.11C26.1685 394.11 26.1685 394.11 26.1649 394.11Z" fill="white"/>
    <rect x="217.207" y="0.367188" width="67.7735" height="67.7735" rx="13.0873" fill="#FF8548"/>
    <g clip-path="url(#clip2_1140_31878)">
        <path d="M243.016 35.3292C245.701 35.3292 247.868 33.162 247.868 30.4772C247.868 27.7925 245.701 25.6253 243.016 25.6253C240.332 25.6253 238.164 27.7925 238.164 30.4772C238.164 33.162 240.332 35.3292 243.016 35.3292ZM262.424 25.6253H252.72C250.941 25.6253 249.486 27.0809 249.486 28.8599V36.9465H236.547V24.0079C236.547 23.1184 235.819 22.3906 234.93 22.3906C234.04 22.3906 233.312 23.1184 233.312 24.0079V45.0331C233.312 45.9227 234.04 46.6505 234.93 46.6505C235.819 46.6505 236.547 45.9227 236.547 45.0331V41.7985H265.659V45.0331C265.659 45.9227 266.387 46.6505 267.276 46.6505C268.166 46.6505 268.894 45.9227 268.894 45.0331V32.0946C268.894 28.5203 265.999 25.6253 262.424 25.6253Z" fill="white"/>
    </g>
    <defs>
        <filter id="filter0_b_1140_31878" x="-45.9428" y="329.159" width="460.71" height="349.763" filterUnits="userSpaceOnUse" color-interpolation-filters="sRGB">
            <feFlood flood-opacity="0" result="BackgroundImageFix"/>
            <feGaussianBlur in="BackgroundImageFix" stdDeviation="46.2175"/>
            <feComposite in2="SourceAlpha" operator="in" result="effect1_backgroundBlur_1140_31878"/>
            <feBlend mode="normal" in="SourceGraphic" in2="effect1_backgroundBlur_1140_31878" result="shape"/>
        </filter>
        <clipPath id="clip0_1140_31878">
            <rect width="486.033" height="486.033" fill="white" transform="translate(5.89844 34.2578)"/>
        </clipPath>
        <clipPath id="clip1_1140_31878">
            <rect width="36.1459" height="36.1459" fill="white" transform="translate(437.641 390.125)"/>
        </clipPath>
        <clipPath id="clip2_1140_31878">
            <rect width="35.5811" height="35.5811" fill="white" transform="translate(233.312 16.4531)"/>
        </clipPath>
    </defs>
</svg>
